<svg width="512" height="512" viewBox="0 0 512 512" fill="none" xmlns="http://www.w3.org/2000/svg">
<rect width="512" height="512" fill="#FFF7E8"/>
<path d="M437.389 208.722V245.759H75V208.722H437.389ZM334.67 81H397.518V306.253C397.518 330.944 391.661 352.661 379.948 371.404C368.234 390.147 351.846 404.793 330.784 415.343C309.722 425.781 285.113 431 256.955 431C228.797 431 204.187 425.781 183.126 415.343C162.064 404.793 145.676 390.147 133.962 371.404C122.361 352.661 116.561 330.944 116.561 306.253V81H179.24V301.034C179.24 315.4 182.393 328.194 188.701 339.418C195.121 350.641 204.131 359.451 215.732 365.849C227.446 372.134 241.187 375.276 256.955 375.276C272.836 375.276 286.577 372.134 298.178 365.849C309.891 359.451 318.902 350.641 325.209 339.418C331.517 328.194 334.67 315.4 334.67 301.034V81Z" fill="black"/>
</svg>
