<svg width="1198" height="571" viewBox="0 0 1198 571" fill="none" xmlns="http://www.w3.org/2000/svg">
<rect width="1198" height="571" fill="white"/>
<rect x="127" y="47" width="60" height="60" fill="#FF6771"/>
<rect x="203" y="164" width="60" height="60" fill="#74CE63"/>
<rect x="491" y="479" width="60" height="60" transform="rotate(-180 491 479)" fill="#EEEEEE"/>
<rect x="567" y="479" width="60" height="60" transform="rotate(-180 567 479)" fill="#F6F6F6"/>
<rect x="643" y="479" width="60" height="60" transform="rotate(-180 643 479)" fill="white" stroke="#EEEEEE"/>
<rect x="415" y="479" width="60" height="60" transform="rotate(-180 415 479)" fill="#A6A6A6"/>
<rect x="339" y="479" width="60" height="60" transform="rotate(-180 339 479)" fill="#7D7D7D"/>
<rect x="263" y="479" width="60" height="60" transform="rotate(-180 263 479)" fill="#4A4A4A"/>
<rect x="187" y="479" width="60" height="60" transform="rotate(-180 187 479)" fill="black"/>
<rect x="127" y="164" width="60" height="60" fill="#4D8BE8"/>
<rect x="127" y="290" width="60" height="60" fill="#2768C8"/>
<rect x="279" y="164" width="60" height="60" fill="#ED663A"/>
<path d="M59.3153 49.228H62.5493C63.3427 49.228 63.9633 49.4473 64.4113 49.886C64.8593 50.3247 65.0833 50.9407 65.0833 51.734C65.0833 52.3407 64.9527 52.8213 64.6913 53.176C64.43 53.5213 64.0753 53.764 63.6273 53.904V53.932C64.1967 54.0533 64.6447 54.31 64.9713 54.702C65.3073 55.0847 65.4753 55.612 65.4753 56.284C65.4753 56.676 65.4147 57.04 65.2933 57.376C65.172 57.7027 64.9993 57.9873 64.7753 58.23C64.5513 58.4727 64.2807 58.664 63.9633 58.804C63.6553 58.9347 63.31 59 62.9273 59H59.3153V49.228ZM62.7173 58.272C63.3333 58.272 63.8 58.118 64.1173 57.81C64.4347 57.502 64.5933 57.096 64.5933 56.592V56.018C64.5933 55.514 64.4347 55.108 64.1173 54.8C63.8 54.492 63.3333 54.338 62.7173 54.338H60.1553V58.272H62.7173ZM62.4793 53.638C63.0393 53.638 63.464 53.498 63.7533 53.218C64.052 52.938 64.2013 52.56 64.2013 52.084V51.524C64.2013 51.048 64.052 50.67 63.7533 50.39C63.464 50.1007 63.0393 49.956 62.4793 49.956H60.1553V53.638H62.4793ZM67.5139 58.314H69.7819V52.462H67.5139V51.776H70.5799V53.428H70.6359C70.7945 52.924 71.0652 52.5227 71.4479 52.224C71.8399 51.9253 72.3532 51.776 72.9879 51.776H74.2339V52.56H72.7499C72.0965 52.56 71.5692 52.756 71.1679 53.148C70.7759 53.5307 70.5799 54.0487 70.5799 54.702V58.314H73.5199V59H67.5139V58.314ZM81.5224 59C81.1957 59 80.9624 58.9207 80.8224 58.762C80.6824 58.6033 80.6031 58.3887 80.5844 58.118V57.866H80.5144C80.3557 58.2487 80.0944 58.5613 79.7304 58.804C79.3664 59.0467 78.8717 59.168 78.2464 59.168C77.4904 59.168 76.8931 58.986 76.4544 58.622C76.0251 58.2487 75.8104 57.726 75.8104 57.054C75.8104 56.7367 75.8617 56.452 75.9644 56.2C76.0764 55.9387 76.2491 55.7193 76.4824 55.542C76.7251 55.3647 77.0331 55.2293 77.4064 55.136C77.7797 55.0333 78.2371 54.982 78.7784 54.982H80.5424V54.1C80.5424 53.4933 80.3744 53.0407 80.0384 52.742C79.7117 52.4433 79.2544 52.294 78.6664 52.294C77.6771 52.294 76.9864 52.6907 76.5944 53.484L76.0484 53.092C76.2351 52.672 76.5477 52.322 76.9864 52.042C77.4344 51.7527 78.0084 51.608 78.7084 51.608C79.5297 51.608 80.1737 51.8227 80.6404 52.252C81.1071 52.672 81.3404 53.26 81.3404 54.016V58.3H82.4184V59H81.5224ZM78.3724 58.496C78.6804 58.496 78.9651 58.4587 79.2264 58.384C79.4877 58.3093 79.7164 58.2067 79.9124 58.076C80.1084 57.936 80.2624 57.768 80.3744 57.572C80.4864 57.376 80.5424 57.1567 80.5424 56.914V55.584H78.7784C78.0224 55.584 77.4764 55.7007 77.1404 55.934C76.8137 56.158 76.6504 56.466 76.6504 56.858V57.222C76.6504 57.642 76.8044 57.9593 77.1124 58.174C77.4297 58.3887 77.8497 58.496 78.3724 58.496ZM84.7369 59V51.776H85.5349V52.896H85.5909C85.7309 52.56 85.9643 52.2613 86.2909 52C86.6269 51.7387 87.0983 51.608 87.7049 51.608C88.4889 51.608 89.0956 51.846 89.5249 52.322C89.9636 52.7887 90.1829 53.4607 90.1829 54.338V59H89.3849V54.478C89.3849 53.7313 89.2216 53.1853 88.8949 52.84C88.5776 52.4947 88.1109 52.322 87.4949 52.322C87.2429 52.322 87.0003 52.3547 86.7669 52.42C86.5336 52.4853 86.3236 52.5833 86.1369 52.714C85.9596 52.8447 85.8149 53.0127 85.7029 53.218C85.5909 53.414 85.5349 53.6473 85.5349 53.918V59H84.7369ZM97.7095 57.852H97.6675C97.4621 58.244 97.1728 58.5613 96.7995 58.804C96.4355 59.0467 95.9781 59.168 95.4275 59.168C94.5221 59.168 93.8175 58.846 93.3135 58.202C92.8095 57.5487 92.5575 56.6107 92.5575 55.388C92.5575 54.1653 92.8095 53.232 93.3135 52.588C93.8175 51.9347 94.5221 51.608 95.4275 51.608C95.9781 51.608 96.4355 51.7293 96.7995 51.972C97.1728 52.2147 97.4621 52.532 97.6675 52.924H97.7095V48.64H98.5075V59H97.7095V57.852ZM95.6935 58.454C95.9641 58.454 96.2208 58.4167 96.4635 58.342C96.7061 58.2673 96.9208 58.16 97.1075 58.02C97.2941 57.88 97.4388 57.7073 97.5415 57.502C97.6535 57.2967 97.7095 57.068 97.7095 56.816V53.96C97.7095 53.708 97.6535 53.4793 97.5415 53.274C97.4388 53.0687 97.2941 52.896 97.1075 52.756C96.9208 52.616 96.7061 52.5087 96.4635 52.434C96.2208 52.3593 95.9641 52.322 95.6935 52.322C94.9655 52.322 94.4008 52.5507 93.9995 53.008C93.6075 53.4653 93.4115 54.0907 93.4115 54.884V55.892C93.4115 56.6853 93.6075 57.3107 93.9995 57.768C94.4008 58.2253 94.9655 58.454 95.6935 58.454Z" fill="#333333"/>
<path d="M59.3153 166.228H62.5493C63.3427 166.228 63.9633 166.447 64.4113 166.886C64.8593 167.325 65.0833 167.941 65.0833 168.734C65.0833 169.341 64.9527 169.821 64.6913 170.176C64.43 170.521 64.0753 170.764 63.6273 170.904V170.932C64.1967 171.053 64.6447 171.31 64.9713 171.702C65.3073 172.085 65.4753 172.612 65.4753 173.284C65.4753 173.676 65.4147 174.04 65.2933 174.376C65.172 174.703 64.9993 174.987 64.7753 175.23C64.5513 175.473 64.2807 175.664 63.9633 175.804C63.6553 175.935 63.31 176 62.9273 176H59.3153V166.228ZM62.7173 175.272C63.3333 175.272 63.8 175.118 64.1173 174.81C64.4347 174.502 64.5933 174.096 64.5933 173.592V173.018C64.5933 172.514 64.4347 172.108 64.1173 171.8C63.8 171.492 63.3333 171.338 62.7173 171.338H60.1553V175.272H62.7173ZM62.4793 170.638C63.0393 170.638 63.464 170.498 63.7533 170.218C64.052 169.938 64.2013 169.56 64.2013 169.084V168.524C64.2013 168.048 64.052 167.67 63.7533 167.39C63.464 167.101 63.0393 166.956 62.4793 166.956H60.1553V170.638H62.4793ZM73.1279 176C72.8012 176 72.5679 175.921 72.4279 175.762C72.2879 175.603 72.2085 175.389 72.1899 175.118V174.866H72.1199C71.9612 175.249 71.6999 175.561 71.3359 175.804C70.9719 176.047 70.4772 176.168 69.8519 176.168C69.0959 176.168 68.4985 175.986 68.0599 175.622C67.6305 175.249 67.4159 174.726 67.4159 174.054C67.4159 173.737 67.4672 173.452 67.5699 173.2C67.6819 172.939 67.8545 172.719 68.0879 172.542C68.3305 172.365 68.6385 172.229 69.0119 172.136C69.3852 172.033 69.8425 171.982 70.3839 171.982H72.1479V171.1C72.1479 170.493 71.9799 170.041 71.6439 169.742C71.3172 169.443 70.8599 169.294 70.2719 169.294C69.2825 169.294 68.5919 169.691 68.1999 170.484L67.6539 170.092C67.8405 169.672 68.1532 169.322 68.5919 169.042C69.0399 168.753 69.6139 168.608 70.3139 168.608C71.1352 168.608 71.7792 168.823 72.2459 169.252C72.7125 169.672 72.9459 170.26 72.9459 171.016V175.3H74.0239V176H73.1279ZM69.9779 175.496C70.2859 175.496 70.5705 175.459 70.8319 175.384C71.0932 175.309 71.3219 175.207 71.5179 175.076C71.7139 174.936 71.8679 174.768 71.9799 174.572C72.0919 174.376 72.1479 174.157 72.1479 173.914V172.584H70.3839C69.6279 172.584 69.0819 172.701 68.7459 172.934C68.4192 173.158 68.2559 173.466 68.2559 173.858V174.222C68.2559 174.642 68.4099 174.959 68.7179 175.174C69.0352 175.389 69.4552 175.496 69.9779 175.496ZM79.1704 176.168C78.4424 176.168 77.8077 176.047 77.2664 175.804C76.7344 175.552 76.2724 175.202 75.8804 174.754L76.4264 174.278C76.7811 174.689 77.1777 174.997 77.6164 175.202C78.0551 175.398 78.5777 175.496 79.1844 175.496C79.8191 175.496 80.3324 175.375 80.7244 175.132C81.1257 174.889 81.3264 174.516 81.3264 174.012C81.3264 173.788 81.2844 173.606 81.2004 173.466C81.1257 173.317 81.0184 173.195 80.8784 173.102C80.7384 173.009 80.5751 172.939 80.3884 172.892C80.2017 172.836 79.9964 172.794 79.7724 172.766L78.6524 172.612C78.3724 172.575 78.0877 172.523 77.7984 172.458C77.5184 172.383 77.2617 172.276 77.0284 172.136C76.8044 171.996 76.6177 171.809 76.4684 171.576C76.3284 171.343 76.2584 171.044 76.2584 170.68C76.2584 170.325 76.3284 170.017 76.4684 169.756C76.6084 169.495 76.8044 169.28 77.0564 169.112C77.3084 168.944 77.6024 168.818 77.9384 168.734C78.2837 168.65 78.6524 168.608 79.0444 168.608C79.7164 168.608 80.2811 168.72 80.7384 168.944C81.2051 169.159 81.5971 169.429 81.9144 169.756L81.3824 170.26C81.2797 170.148 81.1584 170.036 81.0184 169.924C80.8877 169.803 80.7244 169.695 80.5284 169.602C80.3417 169.509 80.1224 169.434 79.8704 169.378C79.6184 169.313 79.3291 169.28 79.0024 169.28C78.3864 169.28 77.9057 169.392 77.5604 169.616C77.2244 169.84 77.0564 170.176 77.0564 170.624C77.0564 170.848 77.0937 171.035 77.1684 171.184C77.2524 171.324 77.3644 171.441 77.5044 171.534C77.6444 171.627 77.8077 171.702 77.9944 171.758C78.1811 171.805 78.3817 171.842 78.5964 171.87L79.7304 172.038C80.0104 172.085 80.2904 172.145 80.5704 172.22C80.8597 172.285 81.1164 172.388 81.3404 172.528C81.5737 172.668 81.7604 172.855 81.9004 173.088C82.0404 173.312 82.1104 173.606 82.1104 173.97C82.1104 174.334 82.0357 174.651 81.8864 174.922C81.7464 175.193 81.5457 175.421 81.2844 175.608C81.0324 175.795 80.7244 175.935 80.3604 176.028C79.9964 176.121 79.5997 176.168 79.1704 176.168ZM87.8589 166.844C87.6069 166.844 87.4249 166.793 87.3129 166.69C87.2103 166.578 87.1589 166.443 87.1589 166.284V166.102C87.1589 165.943 87.2103 165.813 87.3129 165.71C87.4249 165.598 87.6069 165.542 87.8589 165.542C88.1109 165.542 88.2883 165.598 88.3909 165.71C88.5029 165.813 88.5589 165.943 88.5589 166.102V166.284C88.5589 166.443 88.5029 166.578 88.3909 166.69C88.2883 166.793 88.1109 166.844 87.8589 166.844ZM84.7509 175.314H87.4669V169.462H84.7509V168.776H88.2649V175.314H90.7989V176H84.7509V175.314ZM96.0855 176.168C95.0775 176.168 94.2981 175.837 93.7475 175.174C93.1968 174.511 92.9215 173.583 92.9215 172.388C92.9215 171.193 93.1968 170.265 93.7475 169.602C94.3075 168.939 95.0821 168.608 96.0715 168.608C96.7435 168.608 97.2941 168.762 97.7235 169.07C98.1528 169.369 98.4608 169.756 98.6475 170.232L98.0035 170.554C97.8541 170.153 97.6161 169.845 97.2895 169.63C96.9628 169.415 96.5568 169.308 96.0715 169.308C95.3341 169.308 94.7648 169.546 94.3635 170.022C93.9715 170.489 93.7755 171.109 93.7755 171.884V172.892C93.7755 173.667 93.9715 174.292 94.3635 174.768C94.7648 175.235 95.3388 175.468 96.0855 175.468C96.5988 175.468 97.0281 175.351 97.3735 175.118C97.7188 174.885 97.9848 174.558 98.1715 174.138L98.7595 174.516C98.5541 174.992 98.2321 175.389 97.7935 175.706C97.3548 176.014 96.7855 176.168 96.0855 176.168Z" fill="#333333"/>
<path d="M72.8899 429.642H72.8339C72.7499 429.847 72.6472 430.043 72.5259 430.23C72.4045 430.407 72.2552 430.566 72.0779 430.706C71.9005 430.846 71.6812 430.958 71.4199 431.042C71.1679 431.126 70.8692 431.168 70.5239 431.168C69.4599 431.168 68.6572 430.753 68.1159 429.922C67.5745 429.091 67.3039 427.836 67.3039 426.156C67.3039 424.429 67.5885 423.151 68.1579 422.32C68.7365 421.48 69.5952 421.06 70.7339 421.06C71.1352 421.06 71.4945 421.116 71.8119 421.228C72.1292 421.34 72.4045 421.489 72.6379 421.676C72.8712 421.863 73.0672 422.082 73.2259 422.334C73.3939 422.586 73.5292 422.852 73.6319 423.132L72.9039 423.454C72.7265 422.978 72.4699 422.581 72.1339 422.264C71.8072 421.947 71.3499 421.788 70.7619 421.788C69.8939 421.788 69.2499 422.11 68.8299 422.754C68.4099 423.389 68.1999 424.289 68.1999 425.456V426.73C68.1999 427.887 68.3959 428.797 68.7879 429.46C69.1892 430.123 69.8239 430.454 70.6919 430.454C71.0372 430.454 71.3452 430.398 71.6159 430.286C71.8865 430.174 72.1152 430.015 72.3019 429.81C72.4885 429.605 72.6332 429.367 72.7359 429.096C72.8385 428.816 72.8899 428.508 72.8899 428.172V427.01H70.6639V426.338H73.6739V431H72.8899V429.642ZM75.9084 430.314H78.1764V424.462H75.9084V423.776H78.9744V425.428H79.0304C79.1891 424.924 79.4597 424.523 79.8424 424.224C80.2344 423.925 80.7477 423.776 81.3824 423.776H82.6284V424.56H81.1444C80.4911 424.56 79.9637 424.756 79.5624 425.148C79.1704 425.531 78.9744 426.049 78.9744 426.702V430.314H81.9144V431H75.9084V430.314ZM87.5229 431.168C86.5149 431.168 85.7216 430.841 85.1429 430.188C84.5736 429.525 84.2889 428.597 84.2889 427.402C84.2889 426.805 84.3636 426.273 84.5129 425.806C84.6623 425.33 84.8723 424.933 85.1429 424.616C85.4229 424.289 85.7589 424.042 86.1509 423.874C86.5429 423.697 86.9769 423.608 87.4529 423.608C87.9383 423.608 88.3723 423.697 88.7549 423.874C89.1376 424.042 89.4596 424.285 89.7209 424.602C89.9916 424.919 90.1969 425.297 90.3369 425.736C90.4769 426.175 90.5469 426.66 90.5469 427.192V427.542H85.1289V427.892C85.1289 428.667 85.3389 429.292 85.7589 429.768C86.1789 430.235 86.7669 430.468 87.5229 430.468C88.0549 430.468 88.5076 430.347 88.8809 430.104C89.2636 429.861 89.5576 429.502 89.7629 429.026L90.3649 429.404C90.1503 429.936 89.8003 430.365 89.3149 430.692C88.8296 431.009 88.2323 431.168 87.5229 431.168ZM87.4529 424.28C87.0983 424.28 86.7763 424.345 86.4869 424.476C86.2069 424.597 85.9643 424.77 85.7589 424.994C85.5629 425.218 85.4089 425.489 85.2969 425.806C85.1849 426.123 85.1289 426.473 85.1289 426.856V426.94H89.6929V426.828C89.6929 426.044 89.4923 425.423 89.0909 424.966C88.6989 424.509 88.1529 424.28 87.4529 424.28ZM98.2975 423.776H99.0955L95.3295 432.96C95.2081 433.249 95.0541 433.459 94.8675 433.59C94.6901 433.73 94.4101 433.8 94.0275 433.8H92.8235V433.114H94.4615L95.4135 430.804L92.5155 423.776H93.3415L95.7915 429.838H95.8475L98.2975 423.776Z" fill="#333333"/>
<rect x="203" y="290" width="60" height="60" fill="#59C245"/>
<rect x="355" y="164" width="60" height="60" fill="#F6C61B"/>
<path d="M28.6492 307.168C28.2106 307.168 27.8186 307.126 27.4732 307.042C27.1279 306.958 26.8152 306.846 26.5352 306.706C26.2552 306.557 26.0032 306.379 25.7792 306.174C25.5646 305.969 25.3686 305.745 25.1912 305.502L25.8072 304.998C26.1712 305.465 26.5726 305.824 27.0112 306.076C27.4499 306.319 28.0052 306.44 28.6772 306.44C29.4612 306.44 30.0632 306.267 30.4832 305.922C30.9032 305.567 31.1132 305.059 31.1132 304.396C31.1132 303.789 30.9359 303.341 30.5812 303.052C30.2359 302.763 29.7412 302.567 29.0972 302.464L28.0052 302.282C27.5199 302.198 27.1139 302.072 26.7872 301.904C26.4699 301.736 26.2132 301.54 26.0172 301.316C25.8212 301.083 25.6812 300.826 25.5972 300.546C25.5226 300.266 25.4852 299.977 25.4852 299.678C25.4852 298.801 25.7699 298.147 26.3392 297.718C26.9179 297.279 27.6926 297.06 28.6632 297.06C29.4566 297.06 30.1052 297.191 30.6092 297.452C31.1226 297.704 31.5332 298.054 31.8412 298.502L31.2532 299.02C30.9732 298.628 30.6279 298.325 30.2172 298.11C29.8159 297.895 29.2886 297.788 28.6352 297.788C27.9072 297.788 27.3379 297.947 26.9272 298.264C26.5259 298.572 26.3252 299.034 26.3252 299.65C26.3252 300.219 26.4932 300.653 26.8292 300.952C27.1652 301.241 27.6646 301.437 28.3272 301.54L29.4052 301.722C29.8999 301.806 30.3106 301.937 30.6372 302.114C30.9639 302.282 31.2252 302.483 31.4212 302.716C31.6172 302.949 31.7526 303.206 31.8272 303.486C31.9112 303.766 31.9532 304.06 31.9532 304.368C31.9532 305.264 31.6639 305.955 31.0852 306.44C30.5066 306.925 29.6946 307.168 28.6492 307.168ZM37.1558 307.168C36.1478 307.168 35.3544 306.841 34.7758 306.188C34.2064 305.525 33.9218 304.597 33.9218 303.402C33.9218 302.805 33.9964 302.273 34.1458 301.806C34.2951 301.33 34.5051 300.933 34.7758 300.616C35.0558 300.289 35.3918 300.042 35.7838 299.874C36.1758 299.697 36.6098 299.608 37.0858 299.608C37.5711 299.608 38.0051 299.697 38.3878 299.874C38.7704 300.042 39.0924 300.285 39.3538 300.602C39.6244 300.919 39.8298 301.297 39.9698 301.736C40.1098 302.175 40.1798 302.66 40.1798 303.192V303.542H34.7618V303.892C34.7618 304.667 34.9718 305.292 35.3918 305.768C35.8118 306.235 36.3998 306.468 37.1558 306.468C37.6878 306.468 38.1404 306.347 38.5138 306.104C38.8964 305.861 39.1904 305.502 39.3958 305.026L39.9978 305.404C39.7831 305.936 39.4331 306.365 38.9478 306.692C38.4624 307.009 37.8651 307.168 37.1558 307.168ZM37.0858 300.28C36.7311 300.28 36.4091 300.345 36.1198 300.476C35.8398 300.597 35.5971 300.77 35.3918 300.994C35.1958 301.218 35.0418 301.489 34.9298 301.806C34.8178 302.123 34.7618 302.473 34.7618 302.856V302.94H39.3258V302.828C39.3258 302.044 39.1251 301.423 38.7238 300.966C38.3318 300.509 37.7858 300.28 37.0858 300.28ZM45.7183 307.168C44.7103 307.168 43.9309 306.837 43.3803 306.174C42.8296 305.511 42.5543 304.583 42.5543 303.388C42.5543 302.193 42.8296 301.265 43.3803 300.602C43.9403 299.939 44.7149 299.608 45.7043 299.608C46.3763 299.608 46.9269 299.762 47.3563 300.07C47.7856 300.369 48.0936 300.756 48.2803 301.232L47.6363 301.554C47.4869 301.153 47.2489 300.845 46.9223 300.63C46.5956 300.415 46.1896 300.308 45.7043 300.308C44.9669 300.308 44.3976 300.546 43.9963 301.022C43.6043 301.489 43.4083 302.109 43.4083 302.884V303.892C43.4083 304.667 43.6043 305.292 43.9963 305.768C44.3976 306.235 44.9716 306.468 45.7183 306.468C46.2316 306.468 46.6609 306.351 47.0063 306.118C47.3516 305.885 47.6176 305.558 47.8043 305.138L48.3923 305.516C48.1869 305.992 47.8649 306.389 47.4263 306.706C46.9876 307.014 46.4183 307.168 45.7183 307.168ZM53.8328 307.168C52.8435 307.168 52.0688 306.837 51.5088 306.174C50.9581 305.511 50.6828 304.583 50.6828 303.388C50.6828 302.193 50.9581 301.265 51.5088 300.602C52.0688 299.939 52.8435 299.608 53.8328 299.608C54.8221 299.608 55.5921 299.939 56.1428 300.602C56.7028 301.265 56.9828 302.193 56.9828 303.388C56.9828 304.583 56.7028 305.511 56.1428 306.174C55.5921 306.837 54.8221 307.168 53.8328 307.168ZM53.8328 306.468C54.5421 306.468 55.1021 306.244 55.5128 305.796C55.9235 305.348 56.1288 304.695 56.1288 303.836V302.94C56.1288 302.081 55.9235 301.428 55.5128 300.98C55.1021 300.532 54.5421 300.308 53.8328 300.308C53.1235 300.308 52.5635 300.532 52.1528 300.98C51.7421 301.428 51.5368 302.081 51.5368 302.94V303.836C51.5368 304.695 51.7421 305.348 52.1528 305.796C52.5635 306.244 53.1235 306.468 53.8328 306.468ZM59.5533 307V299.776H60.3513V300.896H60.4073C60.5473 300.56 60.7807 300.261 61.1073 300C61.4433 299.739 61.9147 299.608 62.5213 299.608C63.3053 299.608 63.912 299.846 64.3413 300.322C64.78 300.789 64.9993 301.461 64.9993 302.338V307H64.2013V302.478C64.2013 301.731 64.038 301.185 63.7113 300.84C63.394 300.495 62.9273 300.322 62.3113 300.322C62.0593 300.322 61.8167 300.355 61.5833 300.42C61.35 300.485 61.14 300.583 60.9533 300.714C60.776 300.845 60.6313 301.013 60.5193 301.218C60.4073 301.414 60.3513 301.647 60.3513 301.918V307H59.5533ZM72.5259 305.852H72.4839C72.2785 306.244 71.9892 306.561 71.6159 306.804C71.2519 307.047 70.7945 307.168 70.2439 307.168C69.3385 307.168 68.6339 306.846 68.1299 306.202C67.6259 305.549 67.3739 304.611 67.3739 303.388C67.3739 302.165 67.6259 301.232 68.1299 300.588C68.6339 299.935 69.3385 299.608 70.2439 299.608C70.7945 299.608 71.2519 299.729 71.6159 299.972C71.9892 300.215 72.2785 300.532 72.4839 300.924H72.5259V296.64H73.3239V307H72.5259V305.852ZM70.5099 306.454C70.7805 306.454 71.0372 306.417 71.2799 306.342C71.5225 306.267 71.7372 306.16 71.9239 306.02C72.1105 305.88 72.2552 305.707 72.3579 305.502C72.4699 305.297 72.5259 305.068 72.5259 304.816V301.96C72.5259 301.708 72.4699 301.479 72.3579 301.274C72.2552 301.069 72.1105 300.896 71.9239 300.756C71.7372 300.616 71.5225 300.509 71.2799 300.434C71.0372 300.359 70.7805 300.322 70.5099 300.322C69.7819 300.322 69.2172 300.551 68.8159 301.008C68.4239 301.465 68.2279 302.091 68.2279 302.884V303.892C68.2279 304.685 68.4239 305.311 68.8159 305.768C69.2172 306.225 69.7819 306.454 70.5099 306.454ZM81.5224 307C81.1957 307 80.9624 306.921 80.8224 306.762C80.6824 306.603 80.6031 306.389 80.5844 306.118V305.866H80.5144C80.3557 306.249 80.0944 306.561 79.7304 306.804C79.3664 307.047 78.8717 307.168 78.2464 307.168C77.4904 307.168 76.8931 306.986 76.4544 306.622C76.0251 306.249 75.8104 305.726 75.8104 305.054C75.8104 304.737 75.8617 304.452 75.9644 304.2C76.0764 303.939 76.2491 303.719 76.4824 303.542C76.7251 303.365 77.0331 303.229 77.4064 303.136C77.7797 303.033 78.2371 302.982 78.7784 302.982H80.5424V302.1C80.5424 301.493 80.3744 301.041 80.0384 300.742C79.7117 300.443 79.2544 300.294 78.6664 300.294C77.6771 300.294 76.9864 300.691 76.5944 301.484L76.0484 301.092C76.2351 300.672 76.5477 300.322 76.9864 300.042C77.4344 299.753 78.0084 299.608 78.7084 299.608C79.5297 299.608 80.1737 299.823 80.6404 300.252C81.1071 300.672 81.3404 301.26 81.3404 302.016V306.3H82.4184V307H81.5224ZM78.3724 306.496C78.6804 306.496 78.9651 306.459 79.2264 306.384C79.4877 306.309 79.7164 306.207 79.9124 306.076C80.1084 305.936 80.2624 305.768 80.3744 305.572C80.4864 305.376 80.5424 305.157 80.5424 304.914V303.584H78.7784C78.0224 303.584 77.4764 303.701 77.1404 303.934C76.8137 304.158 76.6504 304.466 76.6504 304.858V305.222C76.6504 305.642 76.8044 305.959 77.1124 306.174C77.4297 306.389 77.8497 306.496 78.3724 306.496ZM84.3029 306.314H86.5709V300.462H84.3029V299.776H87.3689V301.428H87.4249C87.5836 300.924 87.8543 300.523 88.2369 300.224C88.6289 299.925 89.1423 299.776 89.7769 299.776H91.0229V300.56H89.5389C88.8856 300.56 88.3583 300.756 87.9569 301.148C87.5649 301.531 87.3689 302.049 87.3689 302.702V306.314H90.3089V307H84.3029V306.314ZM98.2975 299.776H99.0955L95.3295 308.96C95.2081 309.249 95.0541 309.459 94.8675 309.59C94.6901 309.73 94.4101 309.8 94.0275 309.8H92.8235V309.114H94.4615L95.4135 306.804L92.5155 299.776H93.3415L95.7915 305.838H95.8475L98.2975 299.776Z" fill="#333333"/>
<path d="M583.832 495L583.352 489.416H583.784L584.2 494.504H584.256L585.136 490.968H585.68L586.56 494.504H586.608L587.032 489.416H587.448L586.968 495H586.256L585.424 491.552H585.376L584.544 495H583.832ZM588.669 489.08H589.125V491.512H589.157C589.237 491.32 589.37 491.149 589.557 491C589.749 490.851 590.018 490.776 590.365 490.776C590.813 490.776 591.16 490.912 591.405 491.184C591.656 491.451 591.781 491.835 591.781 492.336V495H591.325V492.416C591.325 491.989 591.232 491.677 591.045 491.48C590.864 491.283 590.597 491.184 590.245 491.184C590.101 491.184 589.962 491.203 589.829 491.24C589.696 491.277 589.576 491.333 589.469 491.408C589.368 491.483 589.285 491.579 589.221 491.696C589.157 491.808 589.125 491.941 589.125 492.096V495H588.669V489.08ZM595.25 489.768C595.106 489.768 595.002 489.739 594.938 489.68C594.879 489.616 594.85 489.539 594.85 489.448V489.344C594.85 489.253 594.879 489.179 594.938 489.12C595.002 489.056 595.106 489.024 595.25 489.024C595.394 489.024 595.495 489.056 595.554 489.12C595.618 489.179 595.65 489.253 595.65 489.344V489.448C595.65 489.539 595.618 489.616 595.554 489.68C595.495 489.739 595.394 489.768 595.25 489.768ZM593.474 494.608H595.026V491.264H593.474V490.872H595.482V494.608H596.93V495H593.474V494.608ZM599.807 495C599.583 495 599.417 494.941 599.311 494.824C599.209 494.701 599.159 494.539 599.159 494.336V491.264H597.695V490.872H598.855C598.972 490.872 599.055 490.848 599.103 490.8C599.151 490.752 599.175 490.669 599.175 490.552V489.416H599.615V490.872H601.583V491.264H599.615V494.608H601.583V495H599.807ZM604.652 495.096C604.076 495.096 603.622 494.909 603.292 494.536C602.966 494.157 602.804 493.627 602.804 492.944C602.804 492.603 602.846 492.299 602.932 492.032C603.017 491.76 603.137 491.533 603.292 491.352C603.452 491.165 603.644 491.024 603.868 490.928C604.092 490.827 604.34 490.776 604.612 490.776C604.889 490.776 605.137 490.827 605.356 490.928C605.574 491.024 605.758 491.163 605.908 491.344C606.062 491.525 606.18 491.741 606.26 491.992C606.34 492.243 606.38 492.52 606.38 492.824V493.024H603.284V493.224C603.284 493.667 603.404 494.024 603.644 494.296C603.884 494.563 604.22 494.696 604.652 494.696C604.956 494.696 605.214 494.627 605.428 494.488C605.646 494.349 605.814 494.144 605.932 493.872L606.276 494.088C606.153 494.392 605.953 494.637 605.676 494.824C605.398 495.005 605.057 495.096 604.652 495.096ZM604.612 491.16C604.409 491.16 604.225 491.197 604.06 491.272C603.9 491.341 603.761 491.44 603.644 491.568C603.532 491.696 603.444 491.851 603.38 492.032C603.316 492.213 603.284 492.413 603.284 492.632V492.68H605.892V492.616C605.892 492.168 605.777 491.813 605.548 491.552C605.324 491.291 605.012 491.16 604.612 491.16Z" fill="#333333"/>
<path d="M207.36 240H207.984V237.128H206.096V237.72H207.328V238.272C207.328 239.096 206.68 239.496 205.904 239.496C204.84 239.496 204.184 238.76 204.184 237.656V236.752C204.184 235.648 204.856 234.92 205.84 234.92C206.544 234.92 207.064 235.288 207.32 235.88L207.872 235.544C207.512 234.816 206.84 234.32 205.84 234.32C204.408 234.32 203.464 235.352 203.464 237.208C203.464 239.08 204.416 240.096 205.784 240.096C206.632 240.096 207.2 239.704 207.336 239.184H207.36V240ZM210.979 237.6H212.283L213.491 240H214.251L212.971 237.536C213.699 237.368 214.091 236.816 214.091 236C214.091 234.984 213.507 234.416 212.531 234.416H210.307V240H210.979V237.6ZM210.979 237.024V235.008H212.531C213.059 235.008 213.371 235.296 213.371 235.808V236.224C213.371 236.736 213.059 237.024 212.531 237.024H210.979ZM219.832 240V239.408H217.096V237.472H219.672V236.88H217.096V235.008H219.832V234.416H216.424V240H219.832ZM225.496 240V239.408H222.76V237.472H225.336V236.88H222.76V235.008H225.496V234.416H222.088V240H225.496ZM231.144 240H231.92V234.416H231.264V239.064H231.24L230.568 237.824L228.528 234.416H227.752V240H228.408V235.352H228.432L229.104 236.592L231.144 240ZM240.931 240V239.408H239.491V234.416H238.443L236.963 235.8L237.355 236.224L238.763 234.912H238.819V239.408H237.259V240H240.931ZM205.96 251H206.472L206.76 249.36H207.864V248.88H206.84L207.064 247.536H208.176V247.056H207.152L207.432 245.416H206.92L206.64 247.056H205.408L205.688 245.416H205.176L204.896 247.056H203.792V247.536H204.808L204.584 248.88H203.48V249.36H204.504L204.216 251H204.728L205.016 249.36H206.248L205.96 251ZM205.096 248.88L205.32 247.536H206.552L206.328 248.88H205.096ZM211.823 251L213.919 246.008V245.416H210.255V247.032H210.855V245.992H213.239L211.103 251H211.823ZM219.14 251V249.904H219.948V249.344H219.14V245.416H218.14L215.804 249.312V249.904H218.5V251H219.14ZM218.46 245.936H218.5V249.344H216.436L218.46 245.936ZM224.009 251.096C224.937 251.096 225.617 250.608 225.969 249.824L225.433 249.488C225.209 250.096 224.721 250.496 224.009 250.496C223.049 250.496 222.481 249.8 222.481 248.656V247.824C222.481 246.68 223.049 245.92 224.009 245.92C224.697 245.92 225.161 246.296 225.385 246.872L225.929 246.544C225.577 245.768 224.937 245.32 224.009 245.32C222.601 245.32 221.761 246.376 221.761 248.24C221.761 250.104 222.601 251.096 224.009 251.096ZM231.418 251V250.408H228.682V248.472H231.258V247.88H228.682V246.008H231.418V245.416H228.01V251H231.418ZM235.338 251.096C236.458 251.096 237.194 250.344 237.194 249.248C237.194 248.192 236.506 247.528 235.546 247.528C234.866 247.528 234.466 247.872 234.202 248.328L234.162 248.312C234.466 247.016 235.13 246.288 236.322 245.416H235.458C234.562 246 233.466 247.296 233.466 248.952C233.466 250.28 234.178 251.096 235.338 251.096ZM235.33 250.512C234.594 250.512 234.162 250.088 234.162 249.336V249.272C234.162 248.52 234.594 248.096 235.33 248.096C236.066 248.096 236.498 248.52 236.498 249.272V249.336C236.498 250.088 236.066 250.512 235.33 250.512ZM240.207 247.784V248.368H240.863C241.647 248.368 242.063 248.744 242.063 249.4V249.464C242.063 250.12 241.647 250.496 240.863 250.496C240.183 250.496 239.855 250.2 239.567 249.76L239.063 250.144C239.407 250.624 239.903 251.096 240.871 251.096C242.007 251.096 242.767 250.432 242.767 249.472C242.767 248.632 242.191 248.184 241.591 248.064V248.032C242.183 247.88 242.663 247.448 242.663 246.728C242.663 245.824 241.911 245.32 240.967 245.32C240.071 245.32 239.583 245.784 239.303 246.232L239.799 246.616C240.031 246.192 240.375 245.92 240.951 245.92C241.543 245.92 241.951 246.216 241.951 246.8V246.856C241.951 247.392 241.567 247.784 240.815 247.784H240.207Z" fill="#333333"/>
<path d="M127.744 240H130.28C131.104 240 131.72 239.304 131.72 238.384C131.72 237.456 131.024 237.112 130.624 237.088V237.04C130.992 236.984 131.528 236.688 131.528 235.856C131.528 234.984 130.96 234.416 130.04 234.416H127.744V240ZM128.416 237.408H130.072C130.648 237.408 131 237.712 131 238.272V238.544C131 239.104 130.648 239.408 130.072 239.408H128.416V237.408ZM128.416 235.008H129.96C130.488 235.008 130.808 235.288 130.808 235.784V236.056C130.808 236.552 130.488 236.832 129.96 236.832H128.416V235.008ZM137.019 240V239.408H134.643V234.416H133.971V240H137.019ZM138.712 234.416V237.712C138.712 239.336 139.208 240.096 140.696 240.096C142.184 240.096 142.728 239.336 142.728 237.712V234.416H142.056V237.872C142.056 238.936 141.712 239.496 140.72 239.496C139.728 239.496 139.384 238.936 139.384 237.872V234.416H138.712ZM148.582 240V239.408H145.846V237.472H148.422V236.88H145.846V235.008H148.582V234.416H145.174V240H148.582ZM157.36 240V239.408H155.92V234.416H154.872L153.392 235.8L153.784 236.224L155.192 234.912H155.248V239.408H153.688V240H157.36ZM129.96 251H130.472L130.76 249.36H131.864V248.88H130.84L131.064 247.536H132.176V247.056H131.152L131.432 245.416H130.92L130.64 247.056H129.408L129.688 245.416H129.176L128.896 247.056H127.792V247.536H128.808L128.584 248.88H127.48V249.36H128.504L128.216 251H128.728L129.016 249.36H130.248L129.96 251ZM129.096 248.88L129.32 247.536H130.552L130.328 248.88H129.096ZM137.343 251V249.904H138.151V249.344H137.343V245.416H136.343L134.007 249.312V249.904H136.703V251H137.343ZM136.663 245.936H136.703V249.344H134.639L136.663 245.936ZM140.244 251H142.116C143.508 251 144.404 250.072 144.404 248.208C144.404 246.344 143.508 245.416 142.116 245.416H140.244V251ZM140.916 250.408V246.008H142.116C143.036 246.008 143.684 246.648 143.684 247.752V248.664C143.684 249.768 143.036 250.408 142.116 250.408H140.916ZM148.267 251.096C149.539 251.096 150.203 250.4 150.203 249.48C150.203 248.72 149.747 248.28 149.075 248.096V248.032C149.659 247.832 150.035 247.36 150.035 246.72C150.035 245.872 149.379 245.32 148.267 245.32C147.155 245.32 146.499 245.872 146.499 246.72C146.499 247.36 146.875 247.832 147.459 248.032V248.096C146.787 248.28 146.331 248.72 146.331 249.48C146.331 250.4 146.995 251.096 148.267 251.096ZM148.267 250.512C147.491 250.512 147.043 250.144 147.043 249.512V249.344C147.043 248.712 147.491 248.344 148.267 248.344C149.043 248.344 149.491 248.712 149.491 249.344V249.512C149.491 250.144 149.043 250.512 148.267 250.512ZM148.267 247.784C147.571 247.784 147.195 247.472 147.195 246.904V246.784C147.195 246.216 147.571 245.904 148.267 245.904C148.963 245.904 149.339 246.216 149.339 246.784V246.904C149.339 247.472 148.963 247.784 148.267 247.784ZM152.408 251H154.944C155.768 251 156.384 250.304 156.384 249.384C156.384 248.456 155.688 248.112 155.288 248.088V248.04C155.656 247.984 156.192 247.688 156.192 246.856C156.192 245.984 155.624 245.416 154.704 245.416H152.408V251ZM153.08 248.408H154.736C155.312 248.408 155.664 248.712 155.664 249.272V249.544C155.664 250.104 155.312 250.408 154.736 250.408H153.08V248.408ZM153.08 246.008H154.624C155.152 246.008 155.472 246.288 155.472 246.784V247.056C155.472 247.552 155.152 247.832 154.624 247.832H153.08V246.008ZM162.043 251V250.408H159.307V248.472H161.883V247.88H159.307V246.008H162.043V245.416H158.635V251H162.043ZM165.955 251.096C167.227 251.096 167.891 250.4 167.891 249.48C167.891 248.72 167.435 248.28 166.763 248.096V248.032C167.347 247.832 167.723 247.36 167.723 246.72C167.723 245.872 167.067 245.32 165.955 245.32C164.843 245.32 164.187 245.872 164.187 246.72C164.187 247.36 164.563 247.832 165.147 248.032V248.096C164.475 248.28 164.019 248.72 164.019 249.48C164.019 250.4 164.683 251.096 165.955 251.096ZM165.955 250.512C165.179 250.512 164.731 250.144 164.731 249.512V249.344C164.731 248.712 165.179 248.344 165.955 248.344C166.731 248.344 167.179 248.712 167.179 249.344V249.512C167.179 250.144 166.731 250.512 165.955 250.512ZM165.955 247.784C165.259 247.784 164.883 247.472 164.883 246.904V246.784C164.883 246.216 165.259 245.904 165.955 245.904C166.651 245.904 167.027 246.216 167.027 246.784V246.904C167.027 247.472 166.651 247.784 165.955 247.784Z" fill="#333333"/>
<path d="M127.704 117.416V120.712C127.704 122.336 128.2 123.096 129.688 123.096C131.176 123.096 131.72 122.336 131.72 120.712V117.416H131.048V120.872C131.048 121.936 130.704 122.496 129.712 122.496C128.72 122.496 128.376 121.936 128.376 120.872V117.416H127.704ZM137.558 123H138.334V117.416H137.678V122.064H137.654L136.982 120.824L134.942 117.416H134.166V123H134.822V118.352H134.846L135.518 119.592L137.558 123ZM143.87 123V122.408H141.494V117.416H140.822V123H143.87ZM147.676 123.096C149.116 123.096 150.044 122.08 150.044 120.208C150.044 118.336 149.116 117.32 147.676 117.32C146.236 117.32 145.308 118.336 145.308 120.208C145.308 122.08 146.236 123.096 147.676 123.096ZM147.676 122.496C146.708 122.496 146.028 121.776 146.028 120.672V119.744C146.028 118.64 146.708 117.92 147.676 117.92C148.644 117.92 149.324 118.64 149.324 119.744V120.672C149.324 121.776 148.644 122.496 147.676 122.496ZM154.22 123.096C155.148 123.096 155.828 122.608 156.18 121.824L155.644 121.488C155.42 122.096 154.932 122.496 154.22 122.496C153.26 122.496 152.692 121.8 152.692 120.656V119.824C152.692 118.68 153.26 117.92 154.22 117.92C154.908 117.92 155.372 118.296 155.596 118.872L156.14 118.544C155.788 117.768 155.148 117.32 154.22 117.32C152.812 117.32 151.972 118.376 151.972 120.24C151.972 122.104 152.812 123.096 154.22 123.096ZM161.541 123H162.373L160.149 119.808L162.229 117.416H161.405L159.717 119.416L158.917 120.384H158.893V117.416H158.221V123H158.893V121.136L159.685 120.256L161.541 123ZM128.416 131.6H129.72L130.928 134H131.688L130.408 131.536C131.136 131.368 131.528 130.816 131.528 130C131.528 128.984 130.944 128.416 129.968 128.416H127.744V134H128.416V131.6ZM128.416 131.024V129.008H129.968C130.496 129.008 130.808 129.296 130.808 129.808V130.224C130.808 130.736 130.496 131.024 129.968 131.024H128.416ZM137.269 134V133.408H134.533V131.472H137.109V130.88H134.533V129.008H137.269V128.416H133.861V134H137.269ZM139.525 134H141.397C142.789 134 143.685 133.072 143.685 131.208C143.685 129.344 142.789 128.416 141.397 128.416H139.525V134ZM140.197 133.408V129.008H141.397C142.317 129.008 142.965 129.648 142.965 130.752V131.664C142.965 132.768 142.317 133.408 141.397 133.408H140.197ZM129.96 144H130.472L130.76 142.36H131.864V141.88H130.84L131.064 140.536H132.176V140.056H131.152L131.432 138.416H130.92L130.64 140.056H129.408L129.688 138.416H129.176L128.896 140.056H127.792V140.536H128.808L128.584 141.88H127.48V142.36H128.504L128.216 144H128.728L129.016 142.36H130.248L129.96 144ZM129.096 141.88L129.32 140.536H130.552L130.328 141.88H129.096ZM135.119 144V141.472H137.543V140.88H135.119V139.008H137.775V138.416H134.447V144H135.119ZM140.588 144V141.472H143.012V140.88H140.588V139.008H143.244V138.416H139.916V144H140.588ZM147.049 144.096C148.169 144.096 148.905 143.344 148.905 142.248C148.905 141.192 148.217 140.528 147.257 140.528C146.577 140.528 146.177 140.872 145.913 141.328L145.873 141.312C146.177 140.016 146.841 139.288 148.033 138.416H147.169C146.273 139 145.177 140.296 145.177 141.952C145.177 143.28 145.889 144.096 147.049 144.096ZM147.041 143.512C146.305 143.512 145.873 143.088 145.873 142.336V142.272C145.873 141.52 146.305 141.096 147.041 141.096C147.777 141.096 148.209 141.52 148.209 142.272V142.336C148.209 143.088 147.777 143.512 147.041 143.512ZM152.558 144L154.654 139.008V138.416H150.99V140.032H151.59V138.992H153.974L151.838 144H152.558ZM158.354 144L160.45 139.008V138.416H156.786V140.032H157.386V138.992H159.77L157.634 144H158.354ZM166.407 144V143.408H164.967V138.416H163.919L162.439 139.8L162.831 140.224L164.239 138.912H164.295V143.408H162.735V144H166.407Z" fill="#333333"/>
<path d="M357.696 240V237.768L359.64 234.416H358.872L357.384 237.104H357.36L355.872 234.416H355.104L357.024 237.792V240H357.696ZM364.894 240V239.408H362.158V237.472H364.734V236.88H362.158V235.008H364.894V234.416H361.486V240H364.894ZM370.198 240V239.408H367.822V234.416H367.15V240H370.198ZM375.206 240V239.408H372.83V234.416H372.158V240H375.206ZM379.012 240.096C380.452 240.096 381.38 239.08 381.38 237.208C381.38 235.336 380.452 234.32 379.012 234.32C377.572 234.32 376.644 235.336 376.644 237.208C376.644 239.08 377.572 240.096 379.012 240.096ZM379.012 239.496C378.044 239.496 377.364 238.776 377.364 237.672V236.744C377.364 235.64 378.044 234.92 379.012 234.92C379.98 234.92 380.66 235.64 380.66 236.744V237.672C380.66 238.776 379.98 239.496 379.012 239.496ZM385.108 240L385.852 237.216L386.38 235.168H386.396L386.908 237.216L387.636 240H388.38L389.812 234.416H389.124L388.492 237.104L388.012 239.184H387.988L387.468 237.104L386.788 234.416H386.02L385.316 237.104L384.796 239.192H384.78L384.316 237.104L383.716 234.416H383.004L384.364 240H385.108ZM357.96 251H358.472L358.76 249.36H359.864V248.88H358.84L359.064 247.536H360.176V247.056H359.152L359.432 245.416H358.92L358.64 247.056H357.408L357.688 245.416H357.176L356.896 247.056H355.792V247.536H356.808L356.584 248.88H355.48V249.36H356.504L356.216 251H356.728L357.016 249.36H358.248L357.96 251ZM357.096 248.88L357.32 247.536H358.552L358.328 248.88H357.096ZM363.119 251V248.472H365.543V247.88H363.119V246.008H365.775V245.416H362.447V251H363.119ZM369.58 251.096C370.7 251.096 371.436 250.344 371.436 249.248C371.436 248.192 370.748 247.528 369.788 247.528C369.108 247.528 368.708 247.872 368.444 248.328L368.404 248.312C368.708 247.016 369.372 246.288 370.564 245.416H369.7C368.804 246 367.708 247.296 367.708 248.952C367.708 250.28 368.42 251.096 369.58 251.096ZM369.572 250.512C368.836 250.512 368.404 250.088 368.404 249.336V249.272C368.404 248.52 368.836 248.096 369.572 248.096C370.308 248.096 370.74 248.52 370.74 249.272V249.336C370.74 250.088 370.308 250.512 369.572 250.512ZM375.681 251.096C376.609 251.096 377.289 250.608 377.641 249.824L377.105 249.488C376.881 250.096 376.393 250.496 375.681 250.496C374.721 250.496 374.153 249.8 374.153 248.656V247.824C374.153 246.68 374.721 245.92 375.681 245.92C376.369 245.92 376.833 246.296 377.057 246.872L377.601 246.544C377.249 245.768 376.609 245.32 375.681 245.32C374.273 245.32 373.433 246.376 373.433 248.24C373.433 250.104 374.273 251.096 375.681 251.096ZM381.346 251.096C382.466 251.096 383.202 250.344 383.202 249.248C383.202 248.192 382.514 247.528 381.554 247.528C380.874 247.528 380.474 247.872 380.21 248.328L380.17 248.312C380.474 247.016 381.138 246.288 382.33 245.416H381.466C380.57 246 379.474 247.296 379.474 248.952C379.474 250.28 380.186 251.096 381.346 251.096ZM381.338 250.512C380.602 250.512 380.17 250.088 380.17 249.336V249.272C380.17 248.52 380.602 248.096 381.338 248.096C382.074 248.096 382.506 248.52 382.506 249.272V249.336C382.506 250.088 382.074 250.512 381.338 250.512ZM389.11 251V250.408H387.67V245.416H386.622L385.142 246.8L385.534 247.224L386.942 245.912H386.998V250.408H385.438V251H389.11ZM391.275 251H393.811C394.635 251 395.251 250.304 395.251 249.384C395.251 248.456 394.555 248.112 394.155 248.088V248.04C394.523 247.984 395.059 247.688 395.059 246.856C395.059 245.984 394.491 245.416 393.571 245.416H391.275V251ZM391.947 248.408H393.603C394.179 248.408 394.531 248.712 394.531 249.272V249.544C394.531 250.104 394.179 250.408 393.603 250.408H391.947V248.408ZM391.947 246.008H393.491C394.019 246.008 394.339 246.288 394.339 246.784V247.056C394.339 247.552 394.019 247.832 393.491 247.832H391.947V246.008Z" fill="#333333"/>
<path d="M280.416 237.6H281.72L282.928 240H283.688L282.408 237.536C283.136 237.368 283.528 236.816 283.528 236C283.528 234.984 282.944 234.416 281.968 234.416H279.744V240H280.416V237.6ZM280.416 237.024V235.008H281.968C282.496 235.008 282.808 235.296 282.808 235.808V236.224C282.808 236.736 282.496 237.024 281.968 237.024H280.416ZM289.269 240V239.408H286.533V237.472H289.109V236.88H286.533V235.008H289.269V234.416H285.861V240H289.269ZM291.525 240H293.397C294.789 240 295.685 239.072 295.685 237.208C295.685 235.344 294.789 234.416 293.397 234.416H291.525V240ZM292.197 239.408V235.008H293.397C294.317 235.008 294.965 235.648 294.965 236.752V237.664C294.965 238.768 294.317 239.408 293.397 239.408H292.197ZM281.96 251H282.472L282.76 249.36H283.864V248.88H282.84L283.064 247.536H284.176V247.056H283.152L283.432 245.416H282.92L282.64 247.056H281.408L281.688 245.416H281.176L280.896 247.056H279.792V247.536H280.808L280.584 248.88H279.48V249.36H280.504L280.216 251H280.728L281.016 249.36H282.248L281.96 251ZM281.096 248.88L281.32 247.536H282.552L282.328 248.88H281.096ZM289.855 251V250.408H287.119V248.472H289.695V247.88H287.119V246.008H289.855V245.416H286.447V251H289.855ZM292.111 251H293.983C295.375 251 296.271 250.072 296.271 248.208C296.271 246.344 295.375 245.416 293.983 245.416H292.111V251ZM292.783 250.408V246.008H293.983C294.903 246.008 295.551 246.648 295.551 247.752V248.664C295.551 249.768 294.903 250.408 293.983 250.408H292.783ZM300.142 251.096C301.262 251.096 301.998 250.344 301.998 249.248C301.998 248.192 301.31 247.528 300.35 247.528C299.67 247.528 299.27 247.872 299.006 248.328L298.966 248.312C299.27 247.016 299.934 246.288 301.126 245.416H300.262C299.366 246 298.27 247.296 298.27 248.952C298.27 250.28 298.982 251.096 300.142 251.096ZM300.134 250.512C299.398 250.512 298.966 250.088 298.966 249.336V249.272C298.966 248.52 299.398 248.096 300.134 248.096C300.87 248.096 301.302 248.52 301.302 249.272V249.336C301.302 250.088 300.87 250.512 300.134 250.512ZM305.939 251.096C307.059 251.096 307.795 250.344 307.795 249.248C307.795 248.192 307.107 247.528 306.147 247.528C305.467 247.528 305.067 247.872 304.803 248.328L304.763 248.312C305.067 247.016 305.731 246.288 306.923 245.416H306.059C305.163 246 304.067 247.296 304.067 248.952C304.067 250.28 304.779 251.096 305.939 251.096ZM305.931 250.512C305.195 250.512 304.763 250.088 304.763 249.336V249.272C304.763 248.52 305.195 248.096 305.931 248.096C306.667 248.096 307.099 248.52 307.099 249.272V249.336C307.099 250.088 306.667 250.512 305.931 250.512ZM310.808 247.784V248.368H311.464C312.248 248.368 312.664 248.744 312.664 249.4V249.464C312.664 250.12 312.248 250.496 311.464 250.496C310.784 250.496 310.456 250.2 310.168 249.76L309.664 250.144C310.008 250.624 310.504 251.096 311.472 251.096C312.608 251.096 313.368 250.432 313.368 249.472C313.368 248.632 312.792 248.184 312.192 248.064V248.032C312.784 247.88 313.264 247.448 313.264 246.728C313.264 245.824 312.512 245.32 311.568 245.32C310.672 245.32 310.184 245.784 309.904 246.232L310.4 246.616C310.632 246.192 310.976 245.92 311.552 245.92C312.144 245.92 312.552 246.216 312.552 246.8V246.856C312.552 247.392 312.168 247.784 311.416 247.784H310.808ZM320.069 251L318.117 245.416H317.261L315.309 251H315.989L316.549 249.352H318.805L319.365 251H320.069ZM318.637 248.76H316.709L317.653 246.04H317.693L318.637 248.76Z" fill="#333333"/>
<path d="M127.744 366H130.28C131.104 366 131.72 365.304 131.72 364.384C131.72 363.456 131.024 363.112 130.624 363.088V363.04C130.992 362.984 131.528 362.688 131.528 361.856C131.528 360.984 130.96 360.416 130.04 360.416H127.744V366ZM128.416 363.408H130.072C130.648 363.408 131 363.712 131 364.272V364.544C131 365.104 130.648 365.408 130.072 365.408H128.416V363.408ZM128.416 361.008H129.96C130.488 361.008 130.808 361.288 130.808 361.784V362.056C130.808 362.552 130.488 362.832 129.96 362.832H128.416V361.008ZM137.019 366V365.408H134.643V360.416H133.971V366H137.019ZM138.712 360.416V363.712C138.712 365.336 139.208 366.096 140.696 366.096C142.184 366.096 142.728 365.336 142.728 363.712V360.416H142.056V363.872C142.056 364.936 141.712 365.496 140.72 365.496C139.728 365.496 139.384 364.936 139.384 363.872V360.416H138.712ZM148.582 366V365.408H145.846V363.472H148.422V362.88H145.846V361.008H148.582V360.416H145.174V366H148.582ZM157.248 365.408H154.312L155.816 364.056C156.528 363.416 157.04 362.808 157.04 361.944C157.04 360.992 156.416 360.32 155.328 360.32C154.248 360.32 153.752 360.976 153.536 361.632L154.136 361.864C154.288 361.336 154.608 360.92 155.296 360.92C155.984 360.92 156.328 361.344 156.328 361.96V362.056C156.328 362.592 155.928 363.152 155.408 363.632L153.584 365.312V366H157.248V365.408ZM129.96 377H130.472L130.76 375.36H131.864V374.88H130.84L131.064 373.536H132.176V373.056H131.152L131.432 371.416H130.92L130.64 373.056H129.408L129.688 371.416H129.176L128.896 373.056H127.792V373.536H128.808L128.584 374.88H127.48V375.36H128.504L128.216 377H128.728L129.016 375.36H130.248L129.96 377ZM129.096 374.88L129.32 373.536H130.552L130.328 374.88H129.096ZM137.967 376.408H135.031L136.535 375.056C137.247 374.416 137.759 373.808 137.759 372.944C137.759 371.992 137.135 371.32 136.047 371.32C134.967 371.32 134.471 371.976 134.255 372.632L134.855 372.864C135.007 372.336 135.327 371.92 136.015 371.92C136.703 371.92 137.047 372.344 137.047 372.96V373.056C137.047 373.592 136.647 374.152 136.127 374.632L134.303 376.312V377H137.967V376.408ZM141.62 377L143.716 372.008V371.416H140.052V373.032H140.652V371.992H143.036L140.9 377H141.62ZM147.705 377.096C148.825 377.096 149.561 376.344 149.561 375.248C149.561 374.192 148.873 373.528 147.913 373.528C147.233 373.528 146.833 373.872 146.569 374.328L146.529 374.312C146.833 373.016 147.497 372.288 148.689 371.416H147.825C146.929 372 145.833 373.296 145.833 374.952C145.833 376.28 146.545 377.096 147.705 377.096ZM147.697 376.512C146.961 376.512 146.529 376.088 146.529 375.336V375.272C146.529 374.52 146.961 374.096 147.697 374.096C148.433 374.096 148.865 374.52 148.865 375.272V375.336C148.865 376.088 148.433 376.512 147.697 376.512ZM153.494 377.096C154.766 377.096 155.43 376.4 155.43 375.48C155.43 374.72 154.974 374.28 154.302 374.096V374.032C154.886 373.832 155.262 373.36 155.262 372.72C155.262 371.872 154.606 371.32 153.494 371.32C152.382 371.32 151.726 371.872 151.726 372.72C151.726 373.36 152.102 373.832 152.686 374.032V374.096C152.014 374.28 151.558 374.72 151.558 375.48C151.558 376.4 152.222 377.096 153.494 377.096ZM153.494 376.512C152.718 376.512 152.27 376.144 152.27 375.512V375.344C152.27 374.712 152.718 374.344 153.494 374.344C154.27 374.344 154.718 374.712 154.718 375.344V375.512C154.718 376.144 154.27 376.512 153.494 376.512ZM153.494 373.784C152.798 373.784 152.422 373.472 152.422 372.904V372.784C152.422 372.216 152.798 371.904 153.494 371.904C154.19 371.904 154.566 372.216 154.566 372.784V372.904C154.566 373.472 154.19 373.784 153.494 373.784ZM159.603 377.096C160.531 377.096 161.211 376.608 161.563 375.824L161.027 375.488C160.803 376.096 160.315 376.496 159.603 376.496C158.643 376.496 158.075 375.8 158.075 374.656V373.824C158.075 372.68 158.643 371.92 159.603 371.92C160.291 371.92 160.755 372.296 160.979 372.872L161.523 372.544C161.171 371.768 160.531 371.32 159.603 371.32C158.195 371.32 157.355 372.376 157.355 374.24C157.355 376.104 158.195 377.096 159.603 377.096ZM165.259 377.096C166.531 377.096 167.195 376.4 167.195 375.48C167.195 374.72 166.739 374.28 166.067 374.096V374.032C166.651 373.832 167.027 373.36 167.027 372.72C167.027 371.872 166.371 371.32 165.259 371.32C164.147 371.32 163.491 371.872 163.491 372.72C163.491 373.36 163.867 373.832 164.451 374.032V374.096C163.779 374.28 163.323 374.72 163.323 375.48C163.323 376.4 163.987 377.096 165.259 377.096ZM165.259 376.512C164.483 376.512 164.035 376.144 164.035 375.512V375.344C164.035 374.712 164.483 374.344 165.259 374.344C166.035 374.344 166.483 374.712 166.483 375.344V375.512C166.483 376.144 166.035 376.512 165.259 376.512ZM165.259 373.784C164.563 373.784 164.187 373.472 164.187 372.904V372.784C164.187 372.216 164.563 371.904 165.259 371.904C165.955 371.904 166.331 372.216 166.331 372.784V372.904C166.331 373.472 165.955 373.784 165.259 373.784Z" fill="#333333"/>
<path d="M207.36 495H207.984V492.128H206.096V492.72H207.328V493.272C207.328 494.096 206.68 494.496 205.904 494.496C204.84 494.496 204.184 493.76 204.184 492.656V491.752C204.184 490.648 204.856 489.92 205.84 489.92C206.544 489.92 207.064 490.288 207.32 490.88L207.872 490.544C207.512 489.816 206.84 489.32 205.84 489.32C204.408 489.32 203.464 490.352 203.464 492.208C203.464 494.08 204.416 495.096 205.784 495.096C206.632 495.096 207.2 494.704 207.336 494.184H207.36V495ZM210.979 492.6H212.283L213.491 495H214.251L212.971 492.536C213.699 492.368 214.091 491.816 214.091 491C214.091 489.984 213.507 489.416 212.531 489.416H210.307V495H210.979V492.6ZM210.979 492.024V490.008H212.531C213.059 490.008 213.371 490.296 213.371 490.808V491.224C213.371 491.736 213.059 492.024 212.531 492.024H210.979ZM219.832 495V494.408H217.096V492.472H219.672V491.88H217.096V490.008H219.832V489.416H216.424V495H219.832ZM223.884 495V492.768L225.828 489.416H225.06L223.572 492.104H223.548L222.06 489.416H221.292L223.212 492.792V495H223.884ZM233.46 495V493.904H234.268V493.344H233.46V489.416H232.46L230.124 493.312V493.904H232.82V495H233.46ZM232.78 489.936H232.82V493.344H230.756L232.78 489.936ZM205.96 506H206.472L206.76 504.36H207.864V503.88H206.84L207.064 502.536H208.176V502.056H207.152L207.432 500.416H206.92L206.64 502.056H205.408L205.688 500.416H205.176L204.896 502.056H203.792V502.536H204.808L204.584 503.88H203.48V504.36H204.504L204.216 506H204.728L205.016 504.36H206.248L205.96 506ZM205.096 503.88L205.32 502.536H206.552L206.328 503.88H205.096ZM213.343 506V504.904H214.151V504.344H213.343V500.416H212.343L210.007 504.312V504.904H212.703V506H213.343ZM212.663 500.936H212.703V504.344H210.639L212.663 500.936ZM220.444 506L218.492 500.416H217.636L215.684 506H216.364L216.924 504.352H219.18L219.74 506H220.444ZM219.012 503.76H217.084L218.028 501.04H218.068L219.012 503.76ZM225.265 506V504.904H226.073V504.344H225.265V500.416H224.265L221.929 504.312V504.904H224.625V506H225.265ZM224.585 500.936H224.625V504.344H222.561L224.585 500.936ZM232.366 506L230.414 500.416H229.558L227.606 506H228.286L228.846 504.352H231.102L231.662 506H232.366ZM230.934 503.76H229.006L229.95 501.04H229.99L230.934 503.76ZM237.187 506V504.904H237.995V504.344H237.187V500.416H236.187L233.851 504.312V504.904H236.547V506H237.187ZM236.507 500.936H236.547V504.344H234.483L236.507 500.936ZM244.288 506L242.336 500.416H241.48L239.528 506H240.208L240.768 504.352H243.024L243.584 506H244.288ZM242.856 503.76H240.928L241.872 501.04H241.912L242.856 503.76Z" fill="#333333"/>
<path d="M126.744 488.416H129.04C129.504 488.416 129.867 488.547 130.128 488.808C130.395 489.069 130.528 489.419 130.528 489.856C130.528 490.064 130.499 490.24 130.44 490.384C130.381 490.528 130.307 490.648 130.216 490.744C130.125 490.835 130.027 490.904 129.92 490.952C129.813 490.995 129.715 491.024 129.624 491.04V491.088C129.725 491.093 129.837 491.12 129.96 491.168C130.088 491.216 130.208 491.293 130.32 491.4C130.432 491.501 130.525 491.635 130.6 491.8C130.68 491.96 130.72 492.155 130.72 492.384C130.72 492.613 130.683 492.827 130.608 493.024C130.539 493.221 130.44 493.392 130.312 493.536C130.184 493.68 130.032 493.795 129.856 493.88C129.68 493.96 129.488 494 129.28 494H126.744V488.416ZM127.416 493.408H129.072C129.36 493.408 129.587 493.336 129.752 493.192C129.917 493.043 130 492.827 130 492.544V492.272C130 491.989 129.917 491.776 129.752 491.632C129.587 491.483 129.36 491.408 129.072 491.408H127.416V493.408ZM127.416 490.832H128.96C129.227 490.832 129.435 490.765 129.584 490.632C129.733 490.499 129.808 490.307 129.808 490.056V489.784C129.808 489.533 129.733 489.341 129.584 489.208C129.435 489.075 129.227 489.008 128.96 489.008H127.416V490.832ZM132.971 494V488.416H133.643V493.408H136.019V494H132.971ZM141.623 494L141.063 492.352H138.807L138.247 494H137.567L139.519 488.416H140.375L142.327 494H141.623ZM139.951 489.04H139.911L138.967 491.76H140.895L139.951 489.04ZM146.103 494.096C145.393 494.096 144.841 493.856 144.447 493.376C144.052 492.891 143.855 492.179 143.855 491.24C143.855 490.301 144.052 489.581 144.447 489.08C144.841 488.573 145.393 488.32 146.103 488.32C146.572 488.32 146.964 488.427 147.279 488.64C147.599 488.853 147.847 489.155 148.023 489.544L147.479 489.872C147.367 489.584 147.196 489.355 146.967 489.184C146.737 489.008 146.449 488.92 146.103 488.92C145.863 488.92 145.647 488.965 145.455 489.056C145.268 489.147 145.108 489.277 144.975 489.448C144.847 489.613 144.748 489.813 144.679 490.048C144.609 490.277 144.575 490.536 144.575 490.824V491.656C144.575 492.232 144.708 492.683 144.975 493.008C145.241 493.333 145.617 493.496 146.103 493.496C146.46 493.496 146.759 493.405 146.999 493.224C147.239 493.037 147.415 492.792 147.527 492.488L148.063 492.824C147.887 493.219 147.633 493.531 147.303 493.76C146.972 493.984 146.572 494.096 146.103 494.096ZM151.567 491.256L150.775 492.136V494H150.103V488.416H150.775V491.384H150.799L151.599 490.416L153.287 488.416H154.111L152.031 490.808L154.255 494H153.423L151.567 491.256Z" fill="#333333"/>
<path d="M283.36 495H283.984V492.128H282.096V492.72H283.328V493.272C283.328 494.096 282.68 494.496 281.904 494.496C280.84 494.496 280.184 493.76 280.184 492.656V491.752C280.184 490.648 280.856 489.92 281.84 489.92C282.544 489.92 283.064 490.288 283.32 490.88L283.872 490.544C283.512 489.816 282.84 489.32 281.84 489.32C280.408 489.32 279.464 490.352 279.464 492.208C279.464 494.08 280.416 495.096 281.784 495.096C282.632 495.096 283.2 494.704 283.336 494.184H283.36V495ZM286.979 492.6H288.283L289.491 495H290.251L288.971 492.536C289.699 492.368 290.091 491.816 290.091 491C290.091 489.984 289.507 489.416 288.531 489.416H286.307V495H286.979V492.6ZM286.979 492.024V490.008H288.531C289.059 490.008 289.371 490.296 289.371 490.808V491.224C289.371 491.736 289.059 492.024 288.531 492.024H286.979ZM295.832 495V494.408H293.096V492.472H295.672V491.88H293.096V490.008H295.832V489.416H292.424V495H295.832ZM299.884 495V492.768L301.828 489.416H301.06L299.572 492.104H299.548L298.06 489.416H297.292L299.212 492.792V495H299.884ZM307.3 491.784V492.368H307.956C308.74 492.368 309.156 492.744 309.156 493.4V493.464C309.156 494.12 308.74 494.496 307.956 494.496C307.276 494.496 306.948 494.2 306.66 493.76L306.156 494.144C306.5 494.624 306.996 495.096 307.964 495.096C309.1 495.096 309.86 494.432 309.86 493.472C309.86 492.632 309.284 492.184 308.684 492.064V492.032C309.276 491.88 309.756 491.448 309.756 490.728C309.756 489.824 309.004 489.32 308.06 489.32C307.164 489.32 306.676 489.784 306.396 490.232L306.892 490.616C307.124 490.192 307.468 489.92 308.044 489.92C308.636 489.92 309.044 490.216 309.044 490.8V490.856C309.044 491.392 308.66 491.784 307.908 491.784H307.3ZM281.96 506H282.472L282.76 504.36H283.864V503.88H282.84L283.064 502.536H284.176V502.056H283.152L283.432 500.416H282.92L282.64 502.056H281.408L281.688 500.416H281.176L280.896 502.056H279.792V502.536H280.808L280.584 503.88H279.48V504.36H280.504L280.216 506H280.728L281.016 504.36H282.248L281.96 506ZM281.096 503.88L281.32 502.536H282.552L282.328 503.88H281.096ZM287.823 506L289.919 501.008V500.416H286.255V502.032H286.855V500.992H289.239L287.103 506H287.823ZM292.244 506H294.116C295.508 506 296.404 505.072 296.404 503.208C296.404 501.344 295.508 500.416 294.116 500.416H292.244V506ZM292.916 505.408V501.008H294.116C295.036 501.008 295.684 501.648 295.684 502.752V503.664C295.684 504.768 295.036 505.408 294.116 505.408H292.916ZM299.987 506L302.083 501.008V500.416H298.419V502.032H299.019V500.992H301.403L299.267 506H299.987ZM304.408 506H306.28C307.672 506 308.568 505.072 308.568 503.208C308.568 501.344 307.672 500.416 306.28 500.416H304.408V506ZM305.08 505.408V501.008H306.28C307.2 501.008 307.848 501.648 307.848 502.752V503.664C307.848 504.768 307.2 505.408 306.28 505.408H305.08ZM312.151 506L314.247 501.008V500.416H310.583V502.032H311.183V500.992H313.567L311.431 506H312.151ZM316.572 506H318.444C319.836 506 320.732 505.072 320.732 503.208C320.732 501.344 319.836 500.416 318.444 500.416H316.572V506ZM317.244 505.408V501.008H318.444C319.364 501.008 320.012 501.648 320.012 502.752V503.664C320.012 504.768 319.364 505.408 318.444 505.408H317.244Z" fill="#333333"/>
<path d="M359.36 494.184H359.336C359.267 494.445 359.096 494.664 358.824 494.84C358.557 495.011 358.211 495.096 357.784 495.096C357.443 495.096 357.128 495.035 356.84 494.912C356.557 494.784 356.315 494.6 356.112 494.36C355.909 494.115 355.749 493.813 355.632 493.456C355.52 493.093 355.464 492.677 355.464 492.208C355.464 491.744 355.52 491.333 355.632 490.976C355.744 490.613 355.904 490.312 356.112 490.072C356.32 489.827 356.571 489.64 356.864 489.512C357.157 489.384 357.483 489.32 357.84 489.32C358.341 489.32 358.76 489.432 359.096 489.656C359.432 489.88 359.691 490.176 359.872 490.544L359.32 490.88C359.192 490.581 359 490.347 358.744 490.176C358.493 490.005 358.192 489.92 357.84 489.92C357.595 489.92 357.371 489.965 357.168 490.056C356.965 490.141 356.789 490.264 356.64 490.424C356.496 490.584 356.384 490.776 356.304 491C356.224 491.224 356.184 491.475 356.184 491.752V492.656C356.184 492.933 356.224 493.187 356.304 493.416C356.384 493.64 356.496 493.832 356.64 493.992C356.789 494.152 356.971 494.277 357.184 494.368C357.397 494.453 357.637 494.496 357.904 494.496C358.096 494.496 358.277 494.472 358.448 494.424C358.624 494.371 358.776 494.293 358.904 494.192C359.037 494.091 359.141 493.965 359.216 493.816C359.291 493.661 359.328 493.48 359.328 493.272V492.72H358.096V492.128H359.984V495H359.36V494.184ZM362.979 495H362.307V489.416H364.531C365.021 489.416 365.403 489.552 365.674 489.824C365.952 490.096 366.091 490.488 366.091 491C366.091 491.411 365.995 491.749 365.803 492.016C365.616 492.277 365.339 492.451 364.971 492.536L366.251 495H365.491L364.283 492.6H362.979V495ZM364.531 492.024C364.797 492.024 365.003 491.955 365.147 491.816C365.296 491.677 365.371 491.48 365.371 491.224V490.808C365.371 490.552 365.296 490.355 365.147 490.216C365.003 490.077 364.797 490.008 364.531 490.008H362.979V492.024H364.531ZM368.424 495V489.416H371.832V490.008H369.096V491.88H371.672V492.472H369.096V494.408H371.832V495H368.424ZM375.212 495V492.792L373.292 489.416H374.06L375.548 492.104H375.572L377.06 489.416H377.828L375.884 492.768V495H375.212ZM386.084 495H382.42V494.312L384.244 492.632C384.506 492.392 384.724 492.139 384.9 491.872C385.076 491.6 385.164 491.328 385.164 491.056V490.96C385.164 490.651 385.079 490.4 384.908 490.208C384.738 490.016 384.479 489.92 384.132 489.92C383.962 489.92 383.812 489.944 383.684 489.992C383.556 490.04 383.444 490.107 383.348 490.192C383.258 490.277 383.18 490.379 383.116 490.496C383.058 490.608 383.01 490.731 382.972 490.864L382.372 490.632C382.426 490.467 382.498 490.307 382.588 490.152C382.684 489.992 382.802 489.851 382.94 489.728C383.084 489.605 383.255 489.507 383.452 489.432C383.655 489.357 383.892 489.32 384.164 489.32C384.436 489.32 384.679 489.36 384.892 489.44C385.106 489.52 385.284 489.632 385.428 489.776C385.572 489.92 385.682 490.091 385.756 490.288C385.836 490.485 385.876 490.704 385.876 490.944C385.876 491.163 385.844 491.365 385.78 491.552C385.722 491.739 385.639 491.917 385.532 492.088C385.426 492.253 385.295 492.416 385.14 492.576C384.991 492.736 384.828 492.896 384.652 493.056L383.148 494.408H386.084V495ZM358.248 504.36H357.016L356.728 506H356.216L356.504 504.36H355.48V503.88H356.584L356.808 502.536H355.792V502.056H356.896L357.176 500.416H357.688L357.408 502.056H358.64L358.92 500.416H359.432L359.152 502.056H360.176V502.536H359.064L358.84 503.88H359.864V504.36H358.76L358.472 506H357.96L358.248 504.36ZM358.328 503.88L358.552 502.536H357.32L357.096 503.88H358.328ZM365.943 506L365.383 504.352H363.127L362.567 506H361.887L363.839 500.416H364.695L366.647 506H365.943ZM364.271 501.04H364.231L363.287 503.76H365.215L364.271 501.04ZM370.236 506.096C369.948 506.096 369.687 506.048 369.452 505.952C369.223 505.851 369.025 505.709 368.86 505.528C368.7 505.341 368.577 505.115 368.492 504.848C368.407 504.581 368.364 504.283 368.364 503.952C368.364 503.536 368.425 503.147 368.548 502.784C368.671 502.416 368.828 502.083 369.02 501.784C369.217 501.48 369.433 501.213 369.668 500.984C369.903 500.749 370.132 500.56 370.356 500.416H371.22C370.921 500.635 370.655 500.848 370.42 501.056C370.185 501.264 369.98 501.483 369.804 501.712C369.628 501.936 369.479 502.179 369.356 502.44C369.233 502.696 369.135 502.987 369.06 503.312L369.1 503.328C369.233 503.099 369.404 502.909 369.612 502.76C369.825 502.605 370.103 502.528 370.444 502.528C370.684 502.528 370.905 502.568 371.108 502.648C371.311 502.728 371.484 502.843 371.628 502.992C371.772 503.141 371.884 503.323 371.964 503.536C372.049 503.749 372.092 503.987 372.092 504.248C372.092 504.52 372.047 504.771 371.956 505C371.871 505.224 371.745 505.419 371.58 505.584C371.42 505.744 371.225 505.869 370.996 505.96C370.767 506.051 370.513 506.096 370.236 506.096ZM370.228 505.512C370.596 505.512 370.881 505.411 371.084 505.208C371.292 505.005 371.396 504.715 371.396 504.336V504.272C371.396 503.893 371.292 503.603 371.084 503.4C370.881 503.197 370.596 503.096 370.228 503.096C369.86 503.096 369.572 503.197 369.364 503.4C369.161 503.603 369.06 503.893 369.06 504.272V504.336C369.06 504.715 369.161 505.005 369.364 505.208C369.572 505.411 369.86 505.512 370.228 505.512ZM377.865 506L377.305 504.352H375.049L374.489 506H373.809L375.761 500.416H376.617L378.569 506H377.865ZM376.193 501.04H376.153L375.209 503.76H377.137L376.193 501.04ZM382.158 506.096C381.87 506.096 381.609 506.048 381.374 505.952C381.145 505.851 380.947 505.709 380.782 505.528C380.622 505.341 380.499 505.115 380.414 504.848C380.329 504.581 380.286 504.283 380.286 503.952C380.286 503.536 380.347 503.147 380.47 502.784C380.593 502.416 380.75 502.083 380.942 501.784C381.139 501.48 381.355 501.213 381.59 500.984C381.825 500.749 382.054 500.56 382.278 500.416H383.142C382.843 500.635 382.577 500.848 382.342 501.056C382.107 501.264 381.902 501.483 381.726 501.712C381.55 501.936 381.401 502.179 381.278 502.44C381.155 502.696 381.057 502.987 380.982 503.312L381.022 503.328C381.155 503.099 381.326 502.909 381.534 502.76C381.747 502.605 382.025 502.528 382.366 502.528C382.606 502.528 382.827 502.568 383.03 502.648C383.233 502.728 383.406 502.843 383.55 502.992C383.694 503.141 383.806 503.323 383.886 503.536C383.971 503.749 384.014 503.987 384.014 504.248C384.014 504.52 383.969 504.771 383.878 505C383.793 505.224 383.667 505.419 383.502 505.584C383.342 505.744 383.147 505.869 382.918 505.96C382.689 506.051 382.435 506.096 382.158 506.096ZM382.15 505.512C382.518 505.512 382.803 505.411 383.006 505.208C383.214 505.005 383.318 504.715 383.318 504.336V504.272C383.318 503.893 383.214 503.603 383.006 503.4C382.803 503.197 382.518 503.096 382.15 503.096C381.782 503.096 381.494 503.197 381.286 503.4C381.083 503.603 380.982 503.893 380.982 504.272V504.336C380.982 504.715 381.083 505.005 381.286 505.208C381.494 505.411 381.782 505.512 382.15 505.512ZM389.787 506L389.227 504.352H386.971L386.411 506H385.731L387.683 500.416H388.539L390.491 506H389.787ZM388.115 501.04H388.075L387.131 503.76H389.059L388.115 501.04ZM394.08 506.096C393.792 506.096 393.531 506.048 393.296 505.952C393.067 505.851 392.869 505.709 392.704 505.528C392.544 505.341 392.421 505.115 392.336 504.848C392.251 504.581 392.208 504.283 392.208 503.952C392.208 503.536 392.269 503.147 392.392 502.784C392.515 502.416 392.672 502.083 392.864 501.784C393.061 501.48 393.277 501.213 393.512 500.984C393.747 500.749 393.976 500.56 394.2 500.416H395.064C394.765 500.635 394.499 500.848 394.264 501.056C394.029 501.264 393.824 501.483 393.648 501.712C393.472 501.936 393.323 502.179 393.2 502.44C393.077 502.696 392.979 502.987 392.904 503.312L392.944 503.328C393.077 503.099 393.248 502.909 393.456 502.76C393.669 502.605 393.947 502.528 394.288 502.528C394.528 502.528 394.749 502.568 394.952 502.648C395.155 502.728 395.328 502.843 395.472 502.992C395.616 503.141 395.728 503.323 395.808 503.536C395.893 503.749 395.936 503.987 395.936 504.248C395.936 504.52 395.891 504.771 395.8 505C395.715 505.224 395.589 505.419 395.424 505.584C395.264 505.744 395.069 505.869 394.84 505.96C394.611 506.051 394.357 506.096 394.08 506.096ZM394.072 505.512C394.44 505.512 394.725 505.411 394.928 505.208C395.136 505.005 395.24 504.715 395.24 504.336V504.272C395.24 503.893 395.136 503.603 394.928 503.4C394.725 503.197 394.44 503.096 394.072 503.096C393.704 503.096 393.416 503.197 393.208 503.4C393.005 503.603 392.904 503.893 392.904 504.272V504.336C392.904 504.715 393.005 505.005 393.208 505.208C393.416 505.411 393.704 505.512 394.072 505.512Z" fill="#333333"/>
<path d="M207.36 366H207.984V363.128H206.096V363.72H207.328V364.272C207.328 365.096 206.68 365.496 205.904 365.496C204.84 365.496 204.184 364.76 204.184 363.656V362.752C204.184 361.648 204.856 360.92 205.84 360.92C206.544 360.92 207.064 361.288 207.32 361.88L207.872 361.544C207.512 360.816 206.84 360.32 205.84 360.32C204.408 360.32 203.464 361.352 203.464 363.208C203.464 365.08 204.416 366.096 205.784 366.096C206.632 366.096 207.2 365.704 207.336 365.184H207.36V366ZM210.979 363.6H212.283L213.491 366H214.251L212.971 363.536C213.699 363.368 214.091 362.816 214.091 362C214.091 360.984 213.507 360.416 212.531 360.416H210.307V366H210.979V363.6ZM210.979 363.024V361.008H212.531C213.059 361.008 213.371 361.296 213.371 361.808V362.224C213.371 362.736 213.059 363.024 212.531 363.024H210.979ZM219.832 366V365.408H217.096V363.472H219.672V362.88H217.096V361.008H219.832V360.416H216.424V366H219.832ZM225.496 366V365.408H222.76V363.472H225.336V362.88H222.76V361.008H225.496V360.416H222.088V366H225.496ZM231.144 366H231.92V360.416H231.264V365.064H231.24L230.568 363.824L228.528 360.416H227.752V366H228.408V361.352H228.432L229.104 362.592L231.144 366ZM240.819 365.408H237.883L239.387 364.056C240.099 363.416 240.611 362.808 240.611 361.944C240.611 360.992 239.987 360.32 238.899 360.32C237.819 360.32 237.323 360.976 237.107 361.632L237.707 361.864C237.859 361.336 238.179 360.92 238.867 360.92C239.555 360.92 239.899 361.344 239.899 361.96V362.056C239.899 362.592 239.499 363.152 238.979 363.632L237.155 365.312V366H240.819V365.408ZM205.96 377H206.472L206.76 375.36H207.864V374.88H206.84L207.064 373.536H208.176V373.056H207.152L207.432 371.416H206.92L206.64 373.056H205.408L205.688 371.416H205.176L204.896 373.056H203.792V373.536H204.808L204.584 374.88H203.48V375.36H204.504L204.216 377H204.728L205.016 375.36H206.248L205.96 377ZM205.096 374.88L205.32 373.536H206.552L206.328 374.88H205.096ZM213.687 371.416H210.695L210.495 374.488L211.063 374.568C211.295 374.312 211.551 374.096 212.063 374.096C212.823 374.096 213.231 374.52 213.231 375.256V375.336C213.231 376.072 212.823 376.496 212.063 376.496C211.391 376.496 211.111 376.2 210.823 375.76L210.319 376.144C210.655 376.624 211.135 377.096 212.063 377.096C213.239 377.096 213.943 376.336 213.943 375.248C213.943 374.168 213.239 373.52 212.279 373.52C211.695 373.52 211.399 373.76 211.135 374.136H211.079L211.239 372.008H213.687V371.416ZM219.764 373.464C219.764 372.136 219.052 371.32 217.892 371.32C216.772 371.32 216.036 372.072 216.036 373.168C216.036 374.224 216.724 374.888 217.684 374.888C218.364 374.888 218.764 374.544 219.028 374.088L219.068 374.104C218.764 375.4 218.1 376.128 216.908 377H217.772C218.668 376.416 219.764 375.12 219.764 373.464ZM217.9 374.32C217.164 374.32 216.732 373.896 216.732 373.144V373.08C216.732 372.328 217.164 371.904 217.9 371.904C218.636 371.904 219.068 372.328 219.068 373.08V373.144C219.068 373.896 218.636 374.32 217.9 374.32ZM224.009 377.096C224.937 377.096 225.617 376.608 225.969 375.824L225.433 375.488C225.209 376.096 224.721 376.496 224.009 376.496C223.049 376.496 222.481 375.8 222.481 374.656V373.824C222.481 372.68 223.049 371.92 224.009 371.92C224.697 371.92 225.161 372.296 225.385 372.872L225.929 372.544C225.577 371.768 224.937 371.32 224.009 371.32C222.601 371.32 221.761 372.376 221.761 374.24C221.761 376.104 222.601 377.096 224.009 377.096ZM231.53 376.408H228.594L230.098 375.056C230.81 374.416 231.322 373.808 231.322 372.944C231.322 371.992 230.698 371.32 229.61 371.32C228.53 371.32 228.034 371.976 227.818 372.632L228.418 372.864C228.57 372.336 228.89 371.92 229.578 371.92C230.266 371.92 230.61 372.344 230.61 372.96V373.056C230.61 373.592 230.21 374.152 229.69 374.632L227.866 376.312V377H231.53V376.408ZM236.703 377V375.904H237.511V375.344H236.703V371.416H235.703L233.367 375.312V375.904H236.063V377H236.703ZM236.023 371.936H236.063V375.344H233.999L236.023 371.936ZM242.843 371.416H239.851L239.651 374.488L240.219 374.568C240.451 374.312 240.707 374.096 241.219 374.096C241.979 374.096 242.387 374.52 242.387 375.256V375.336C242.387 376.072 241.979 376.496 241.219 376.496C240.547 376.496 240.267 376.2 239.979 375.76L239.475 376.144C239.811 376.624 240.291 377.096 241.219 377.096C242.395 377.096 243.099 376.336 243.099 375.248C243.099 374.168 242.395 373.52 241.435 373.52C240.851 373.52 240.555 373.76 240.291 374.136H240.235L240.395 372.008H242.843V371.416Z" fill="#333333"/>
<path d="M435.36 494.184H435.336C435.267 494.445 435.096 494.664 434.824 494.84C434.557 495.011 434.211 495.096 433.784 495.096C433.443 495.096 433.128 495.035 432.84 494.912C432.557 494.784 432.315 494.6 432.112 494.36C431.909 494.115 431.749 493.813 431.632 493.456C431.52 493.093 431.464 492.677 431.464 492.208C431.464 491.744 431.52 491.333 431.632 490.976C431.744 490.613 431.904 490.312 432.112 490.072C432.32 489.827 432.571 489.64 432.864 489.512C433.157 489.384 433.483 489.32 433.84 489.32C434.341 489.32 434.76 489.432 435.096 489.656C435.432 489.88 435.691 490.176 435.872 490.544L435.32 490.88C435.192 490.581 435 490.347 434.744 490.176C434.493 490.005 434.192 489.92 433.84 489.92C433.595 489.92 433.371 489.965 433.168 490.056C432.965 490.141 432.789 490.264 432.64 490.424C432.496 490.584 432.384 490.776 432.304 491C432.224 491.224 432.184 491.475 432.184 491.752V492.656C432.184 492.933 432.224 493.187 432.304 493.416C432.384 493.64 432.496 493.832 432.64 493.992C432.789 494.152 432.971 494.277 433.184 494.368C433.397 494.453 433.637 494.496 433.904 494.496C434.096 494.496 434.277 494.472 434.448 494.424C434.624 494.371 434.776 494.293 434.904 494.192C435.037 494.091 435.141 493.965 435.216 493.816C435.291 493.661 435.328 493.48 435.328 493.272V492.72H434.096V492.128H435.984V495H435.36V494.184ZM438.979 495H438.307V489.416H440.531C441.021 489.416 441.403 489.552 441.674 489.824C441.952 490.096 442.091 490.488 442.091 491C442.091 491.411 441.995 491.749 441.803 492.016C441.616 492.277 441.339 492.451 440.971 492.536L442.251 495H441.491L440.283 492.6H438.979V495ZM440.531 492.024C440.797 492.024 441.003 491.955 441.147 491.816C441.296 491.677 441.371 491.48 441.371 491.224V490.808C441.371 490.552 441.296 490.355 441.147 490.216C441.003 490.077 440.797 490.008 440.531 490.008H438.979V492.024H440.531ZM444.424 495V489.416H447.832V490.008H445.096V491.88H447.672V492.472H445.096V494.408H447.832V495H444.424ZM451.212 495V492.792L449.292 489.416H450.06L451.548 492.104H451.572L453.06 489.416H453.828L451.884 492.768V495H451.212ZM458.524 495V494.408H460.084V489.912H460.028L458.62 491.224L458.228 490.8L459.708 489.416H460.756V494.408H462.196V495H458.524ZM434.248 504.36H433.016L432.728 506H432.216L432.504 504.36H431.48V503.88H432.584L432.808 502.536H431.792V502.056H432.896L433.176 500.416H433.688L433.408 502.056H434.64L434.92 500.416H435.432L435.152 502.056H436.176V502.536H435.064L434.84 503.88H435.864V504.36H434.76L434.472 506H433.96L434.248 504.36ZM434.328 503.88L434.552 502.536H433.32L433.096 503.88H434.328ZM438.447 506V500.416H441.855V501.008H439.119V502.88H441.695V503.472H439.119V505.408H441.855V506H438.447ZM444.111 506V500.416H447.519V501.008H444.783V502.88H447.359V503.472H444.783V505.408H447.519V506H444.111ZM449.775 506V500.416H453.183V501.008H450.447V502.88H453.023V503.472H450.447V505.408H453.183V506H449.775ZM455.439 506V500.416H458.847V501.008H456.111V502.88H458.687V503.472H456.111V505.408H458.847V506H455.439ZM461.103 506V500.416H464.511V501.008H461.775V502.88H464.351V503.472H461.775V505.408H464.511V506H461.103ZM466.767 506V500.416H470.175V501.008H467.439V502.88H470.015V503.472H467.439V505.408H470.175V506H466.767Z" fill="#333333"/>
<path d="M511.36 494.184H511.336C511.267 494.445 511.096 494.664 510.824 494.84C510.557 495.011 510.211 495.096 509.784 495.096C509.443 495.096 509.128 495.035 508.84 494.912C508.557 494.784 508.315 494.6 508.112 494.36C507.909 494.115 507.749 493.813 507.632 493.456C507.52 493.093 507.464 492.677 507.464 492.208C507.464 491.744 507.52 491.333 507.632 490.976C507.744 490.613 507.904 490.312 508.112 490.072C508.32 489.827 508.571 489.64 508.864 489.512C509.157 489.384 509.483 489.32 509.84 489.32C510.341 489.32 510.76 489.432 511.096 489.656C511.432 489.88 511.691 490.176 511.872 490.544L511.32 490.88C511.192 490.581 511 490.347 510.744 490.176C510.493 490.005 510.192 489.92 509.84 489.92C509.595 489.92 509.371 489.965 509.168 490.056C508.965 490.141 508.789 490.264 508.64 490.424C508.496 490.584 508.384 490.776 508.304 491C508.224 491.224 508.184 491.475 508.184 491.752V492.656C508.184 492.933 508.224 493.187 508.304 493.416C508.384 493.64 508.496 493.832 508.64 493.992C508.789 494.152 508.971 494.277 509.184 494.368C509.397 494.453 509.637 494.496 509.904 494.496C510.096 494.496 510.277 494.472 510.448 494.424C510.624 494.371 510.776 494.293 510.904 494.192C511.037 494.091 511.141 493.965 511.216 493.816C511.291 493.661 511.328 493.48 511.328 493.272V492.72H510.096V492.128H511.984V495H511.36V494.184ZM514.979 495H514.307V489.416H516.531C517.021 489.416 517.403 489.552 517.674 489.824C517.952 490.096 518.091 490.488 518.091 491C518.091 491.411 517.995 491.749 517.803 492.016C517.616 492.277 517.339 492.451 516.971 492.536L518.251 495H517.491L516.283 492.6H514.979V495ZM516.531 492.024C516.797 492.024 517.003 491.955 517.147 491.816C517.296 491.677 517.371 491.48 517.371 491.224V490.808C517.371 490.552 517.296 490.355 517.147 490.216C517.003 490.077 516.797 490.008 516.531 490.008H514.979V492.024H516.531ZM520.424 495V489.416H523.832V490.008H521.096V491.88H523.672V492.472H521.096V494.408H523.832V495H520.424ZM527.212 495V492.792L525.292 489.416H526.06L527.548 492.104H527.572L529.06 489.416H529.828L527.884 492.768V495H527.212ZM536.22 495.096C535.554 495.096 535.066 494.843 534.756 494.336C534.452 493.829 534.3 493.12 534.3 492.208C534.3 491.296 534.452 490.587 534.756 490.08C535.066 489.573 535.554 489.32 536.22 489.32C536.887 489.32 537.372 489.573 537.676 490.08C537.986 490.587 538.14 491.296 538.14 492.208C538.14 493.12 537.986 493.829 537.676 494.336C537.372 494.843 536.887 495.096 536.22 495.096ZM536.22 494.512C536.439 494.512 536.626 494.467 536.78 494.376C536.935 494.285 537.06 494.157 537.156 493.992C537.252 493.827 537.322 493.632 537.364 493.408C537.412 493.184 537.436 492.936 537.436 492.664V491.752C537.436 491.48 537.412 491.232 537.364 491.008C537.322 490.784 537.252 490.589 537.156 490.424C537.06 490.259 536.935 490.131 536.78 490.04C536.626 489.949 536.439 489.904 536.22 489.904C536.002 489.904 535.815 489.949 535.66 490.04C535.506 490.131 535.38 490.259 535.284 490.424C535.188 490.589 535.116 490.784 535.068 491.008C535.026 491.232 535.004 491.48 535.004 491.752V492.664C535.004 492.936 535.026 493.184 535.068 493.408C535.116 493.632 535.188 493.827 535.284 493.992C535.38 494.157 535.506 494.285 535.66 494.376C535.815 494.467 536.002 494.512 536.22 494.512ZM510.248 504.36H509.016L508.728 506H508.216L508.504 504.36H507.48V503.88H508.584L508.808 502.536H507.792V502.056H508.896L509.176 500.416H509.688L509.408 502.056H510.64L510.92 500.416H511.432L511.152 502.056H512.176V502.536H511.064L510.84 503.88H511.864V504.36H510.76L510.472 506H509.96L510.248 504.36ZM510.328 503.88L510.552 502.536H509.32L509.096 503.88H510.328ZM514.447 506V500.416H517.775V501.008H515.119V502.88H517.543V503.472H515.119V506H514.447ZM521.58 506.096C521.292 506.096 521.031 506.048 520.796 505.952C520.567 505.851 520.369 505.709 520.204 505.528C520.044 505.341 519.921 505.115 519.836 504.848C519.751 504.581 519.708 504.283 519.708 503.952C519.708 503.536 519.769 503.147 519.892 502.784C520.015 502.416 520.172 502.083 520.364 501.784C520.561 501.48 520.777 501.213 521.012 500.984C521.247 500.749 521.476 500.56 521.7 500.416H522.564C522.265 500.635 521.999 500.848 521.764 501.056C521.529 501.264 521.324 501.483 521.148 501.712C520.972 501.936 520.823 502.179 520.7 502.44C520.577 502.696 520.479 502.987 520.404 503.312L520.444 503.328C520.577 503.099 520.748 502.909 520.956 502.76C521.169 502.605 521.447 502.528 521.788 502.528C522.028 502.528 522.249 502.568 522.452 502.648C522.655 502.728 522.828 502.843 522.972 502.992C523.116 503.141 523.228 503.323 523.308 503.536C523.393 503.749 523.436 503.987 523.436 504.248C523.436 504.52 523.391 504.771 523.3 505C523.215 505.224 523.089 505.419 522.924 505.584C522.764 505.744 522.569 505.869 522.34 505.96C522.111 506.051 521.857 506.096 521.58 506.096ZM521.572 505.512C521.94 505.512 522.225 505.411 522.428 505.208C522.636 505.005 522.74 504.715 522.74 504.336V504.272C522.74 503.893 522.636 503.603 522.428 503.4C522.225 503.197 521.94 503.096 521.572 503.096C521.204 503.096 520.916 503.197 520.708 503.4C520.505 503.603 520.404 503.893 520.404 504.272V504.336C520.404 504.715 520.505 505.005 520.708 505.208C520.916 505.411 521.204 505.512 521.572 505.512ZM525.713 506V500.416H529.041V501.008H526.385V502.88H528.809V503.472H526.385V506H525.713ZM532.846 506.096C532.558 506.096 532.296 506.048 532.062 505.952C531.832 505.851 531.635 505.709 531.47 505.528C531.31 505.341 531.187 505.115 531.102 504.848C531.016 504.581 530.974 504.283 530.974 503.952C530.974 503.536 531.035 503.147 531.158 502.784C531.28 502.416 531.438 502.083 531.63 501.784C531.827 501.48 532.043 501.213 532.278 500.984C532.512 500.749 532.742 500.56 532.966 500.416H533.83C533.531 500.635 533.264 500.848 533.03 501.056C532.795 501.264 532.59 501.483 532.414 501.712C532.238 501.936 532.088 502.179 531.966 502.44C531.843 502.696 531.744 502.987 531.67 503.312L531.71 503.328C531.843 503.099 532.014 502.909 532.222 502.76C532.435 502.605 532.712 502.528 533.054 502.528C533.294 502.528 533.515 502.568 533.718 502.648C533.92 502.728 534.094 502.843 534.238 502.992C534.382 503.141 534.494 503.323 534.574 503.536C534.659 503.749 534.702 503.987 534.702 504.248C534.702 504.52 534.656 504.771 534.566 505C534.48 505.224 534.355 505.419 534.19 505.584C534.03 505.744 533.835 505.869 533.606 505.96C533.376 506.051 533.123 506.096 532.846 506.096ZM532.838 505.512C533.206 505.512 533.491 505.411 533.694 505.208C533.902 505.005 534.006 504.715 534.006 504.336V504.272C534.006 503.893 533.902 503.603 533.694 503.4C533.491 503.197 533.206 503.096 532.838 503.096C532.47 503.096 532.182 503.197 531.974 503.4C531.771 503.603 531.67 503.893 531.67 504.272V504.336C531.67 504.715 531.771 505.005 531.974 505.208C532.182 505.411 532.47 505.512 532.838 505.512ZM536.978 506V500.416H540.306V501.008H537.65V502.88H540.074V503.472H537.65V506H536.978ZM544.111 506.096C543.823 506.096 543.562 506.048 543.327 505.952C543.098 505.851 542.9 505.709 542.735 505.528C542.575 505.341 542.452 505.115 542.367 504.848C542.282 504.581 542.239 504.283 542.239 503.952C542.239 503.536 542.3 503.147 542.423 502.784C542.546 502.416 542.703 502.083 542.895 501.784C543.092 501.48 543.308 501.213 543.543 500.984C543.778 500.749 544.007 500.56 544.231 500.416H545.095C544.796 500.635 544.53 500.848 544.295 501.056C544.06 501.264 543.855 501.483 543.679 501.712C543.503 501.936 543.354 502.179 543.231 502.44C543.108 502.696 543.01 502.987 542.935 503.312L542.975 503.328C543.108 503.099 543.279 502.909 543.487 502.76C543.7 502.605 543.978 502.528 544.319 502.528C544.559 502.528 544.78 502.568 544.983 502.648C545.186 502.728 545.359 502.843 545.503 502.992C545.647 503.141 545.759 503.323 545.839 503.536C545.924 503.749 545.967 503.987 545.967 504.248C545.967 504.52 545.922 504.771 545.831 505C545.746 505.224 545.62 505.419 545.455 505.584C545.295 505.744 545.1 505.869 544.871 505.96C544.642 506.051 544.388 506.096 544.111 506.096ZM544.103 505.512C544.471 505.512 544.756 505.411 544.959 505.208C545.167 505.005 545.271 504.715 545.271 504.336V504.272C545.271 503.893 545.167 503.603 544.959 503.4C544.756 503.197 544.471 503.096 544.103 503.096C543.735 503.096 543.447 503.197 543.239 503.4C543.036 503.603 542.935 503.893 542.935 504.272V504.336C542.935 504.715 543.036 505.005 543.239 505.208C543.447 505.411 543.735 505.512 544.103 505.512Z" fill="#333333"/>
</svg>
