<svg width="814" height="144" viewBox="0 0 814 144" fill="none" xmlns="http://www.w3.org/2000/svg">
<path d="M0 73.0239L44.1196 99.1227V52.9885V0L0 73.0239Z" fill="url(#paint0_linear_401_2)"/>
<path d="M44.1189 0V52.9885V99.1227L88.2384 73.0239L44.1189 0Z" fill="url(#paint1_linear_401_2)"/>
<path d="M3.05176e-05 81.46L44.1196 143.412V107.295L3.05176e-05 81.46Z" fill="url(#paint2_linear_401_2)"/>
<path d="M44.1189 107.295V143.412L88.2384 81.46L44.1189 107.295Z" fill="url(#paint3_linear_401_2)"/>
<path d="M137.93 124.44C136.967 124.44 136.149 124.248 135.475 123.862C134.801 123.478 134.464 122.996 134.464 122.419C134.464 121.168 135.716 120.254 138.218 119.677C141.78 118.715 144.283 117.608 145.727 116.357C147.17 115.01 147.893 112.797 147.893 109.718V44.3325C147.893 41.1568 147.219 38.8955 145.871 37.5485C144.62 36.1051 142.213 34.9985 138.652 34.2287C136.149 33.7476 134.897 32.7853 134.897 31.3419C134.897 30.6684 135.186 30.1872 135.764 29.8986C136.437 29.5137 137.304 29.3212 138.363 29.3212C141.251 29.3212 145.197 29.4174 150.203 29.6099C155.209 29.8023 158.915 29.8986 161.321 29.8986C169.022 29.8986 178.167 29.8023 188.755 29.6099C191.739 29.5137 194.29 29.3693 196.408 29.1769C198.622 28.9844 199.921 28.8882 200.307 28.8882C202.328 28.8882 203.435 29.6099 203.628 31.0533L204.638 37.5485C205.505 42.5521 205.938 46.2088 205.938 48.5181C205.938 49.2878 205.745 49.9134 205.36 50.3947C204.975 50.8757 204.494 51.1161 203.916 51.1161C202.954 51.1161 202.184 50.4426 201.606 49.0957C200.836 47.0748 200.066 45.1985 199.296 43.4665C198.622 41.6382 197.9 40.3391 197.13 39.5694C194.435 36.6824 191.017 35.2391 186.878 35.2391H173.45C171.621 35.2391 169.984 35.7683 168.541 36.8268C167.193 37.8852 166.519 39.2806 166.519 41.0126V69.3027C166.519 71.5161 167.626 72.6226 169.84 72.6226H182.98C185.386 72.6226 187.119 71.9971 188.178 70.7464C189.333 69.4953 190.392 67.4265 191.354 64.5396C191.932 62.615 192.846 61.6531 194.098 61.6531C194.579 61.6531 195.012 61.9415 195.397 62.5191C195.782 63 195.975 63.6735 195.975 64.5396C195.59 68.3887 195.397 72.0933 195.397 75.6537C195.397 80.5611 195.542 84.4582 195.831 87.3451V88.0669C195.831 89.799 195.349 90.665 194.386 90.665C193.713 90.665 193.039 90.3282 192.365 89.6544C191.787 88.8846 191.354 87.8744 191.066 86.6233C190.296 83.833 189.381 81.8122 188.322 80.5611C187.263 79.2141 185.819 78.5406 183.99 78.5406H170.562C169.118 78.5406 168.059 78.829 167.385 79.4066C166.808 79.8876 166.519 80.7536 166.519 82.0047V109.429C166.519 112.508 167.145 114.673 168.396 115.924C169.744 117.175 171.861 117.8 174.749 117.8H186.589C191.787 117.8 195.686 116.838 198.285 114.914C200.884 112.893 203.628 109.14 206.515 103.655C207.189 102.404 208.056 101.779 209.114 101.779C210.077 101.875 210.559 102.693 210.559 104.233C210.559 107.312 209.066 113.326 206.082 122.275C205.505 123.622 204.542 124.295 203.195 124.295L185.868 124.007C173.546 123.815 163.872 123.718 156.845 123.718C155.016 123.718 151.984 123.815 147.748 124.007C144.571 124.295 141.299 124.44 137.93 124.44Z" fill="#242320"/>
<path d="M243.522 124.296C242.559 124.296 241.693 124.103 240.922 123.718C240.248 123.43 239.912 122.996 239.912 122.419C239.912 120.976 241.211 119.965 243.81 119.388C247.661 118.618 250.404 117.56 252.04 116.213C253.677 114.769 254.495 112.508 254.495 109.429V50.972C254.495 45.3908 254.303 41.6862 253.918 39.8578C253.533 38.0297 252.859 36.9712 251.896 36.6825C250.26 36.1052 247.661 35.8165 244.099 35.8165H239.623C236.831 35.8165 234.136 36.4901 231.537 37.8372C228.938 39.1844 226.916 40.9164 225.472 43.0335C224.606 44.4768 223.451 45.9684 222.007 47.5079C220.659 48.9511 219.408 49.673 218.253 49.673C217.098 49.673 216.52 48.9032 216.52 47.3637C216.52 46.4014 216.809 45.2465 217.386 43.8996C219.023 40.5313 220.226 37.6448 220.996 35.2391C221.767 32.7373 222.344 29.8505 222.729 26.5789C223.114 24.2695 224.173 23.1147 225.906 23.1147C226.387 23.1147 227.109 23.7883 228.072 25.1355C229.034 26.3864 229.756 27.3006 230.237 27.8779C231.007 28.6477 232.451 29.2732 234.569 29.7543C236.687 30.2354 238.66 30.476 240.489 30.476L293.77 30.3317C298.294 30.3317 302 29.658 304.888 28.3109C305.562 27.926 306.476 27.2524 307.631 26.2902C308.401 25.6166 309.027 25.1355 309.508 24.8468C310.086 24.4619 310.711 24.2695 311.385 24.2695C312.348 24.2695 312.829 25.1836 312.829 27.0119C312.829 27.493 312.685 28.5996 312.396 30.3317C312.396 30.3317 312.059 31.6788 311.385 34.3731C310.423 37.9334 309.941 40.8685 309.941 43.1777V45.6316C309.941 47.0749 309.701 48.2776 309.219 49.2399C308.835 50.106 308.257 50.539 307.487 50.539C306.717 50.539 306.043 50.106 305.465 49.2399C304.888 48.3739 304.358 46.9307 303.877 44.9098C303.011 41.7345 301.519 39.4248 299.401 37.9815C297.379 36.5382 294.251 35.8165 290.015 35.8165H280.197C278.175 35.8165 276.683 36.2014 275.721 36.9712C274.854 37.6448 274.229 39.0881 273.844 41.3015C273.459 43.4182 273.266 46.8823 273.266 51.6938V109.285C273.266 112.267 274.084 114.481 275.721 115.924C277.357 117.367 280.1 118.522 283.951 119.388C285.298 119.677 286.261 120.062 286.839 120.543C287.513 120.928 287.85 121.505 287.85 122.275C287.85 122.852 287.513 123.333 286.839 123.718C286.165 124.007 285.347 124.151 284.384 124.151C282.074 124.151 278.512 124.055 273.699 123.863C269.271 123.67 266.047 123.574 264.025 123.574C262.1 123.574 258.827 123.67 254.206 123.863C250.741 124.151 247.179 124.296 243.522 124.296Z" fill="#242320"/>
<path d="M319.402 124.296C318.536 124.296 317.766 124.103 317.092 123.718C316.418 123.333 316.081 122.852 316.081 122.275C316.081 121.505 316.37 120.928 316.948 120.543C317.525 120.062 318.44 119.677 319.691 119.388C323.06 118.618 325.323 117.608 326.477 116.357C327.729 115.01 328.355 112.749 328.355 109.573V44.188C328.355 40.9164 327.825 38.6552 326.766 37.4042C325.804 36.0571 323.59 34.9986 320.125 34.2288C317.718 33.8439 316.514 32.8816 316.514 31.342C316.514 30.6685 316.803 30.1873 317.381 29.8987C318.055 29.5137 318.873 29.3213 319.836 29.3213C322.435 29.3213 325.756 29.4175 329.799 29.61C333.649 29.8024 336.393 29.8987 338.029 29.8987C339.762 29.8987 342.65 29.8024 346.692 29.61C351.12 29.4175 354.634 29.3213 357.233 29.3213C359.254 29.3213 360.265 30.043 360.265 31.4864C360.265 32.2562 359.977 32.8335 359.399 33.2184C358.918 33.6033 358.003 33.9401 356.655 34.2288C352.901 35.1911 350.35 36.3939 349.003 37.8372C347.751 39.1844 347.126 41.3494 347.126 44.3326V71.1795C347.126 72.3339 347.848 72.9115 349.291 72.9115H392.463C393.523 72.9115 394.053 72.2376 394.053 70.8907V44.188C394.053 41.3974 393.38 39.2806 392.03 37.8372C390.781 36.2976 388.325 35.0948 384.667 34.2288C383.32 33.9401 382.357 33.6033 381.78 33.2184C381.202 32.8335 380.913 32.2562 380.913 31.4864C380.913 30.043 381.972 29.3213 384.09 29.3213C386.592 29.3213 390.154 29.4175 394.776 29.61C399.011 29.8024 402.09 29.8987 404.016 29.8987C405.555 29.8987 408.058 29.8024 411.523 29.61C415.375 29.4175 418.647 29.3213 421.343 29.3213C422.306 29.3213 423.076 29.5137 423.652 29.8987C424.325 30.1873 424.665 30.6685 424.665 31.342C424.665 32.7854 423.459 33.7477 421.053 34.2288C417.684 34.9986 415.472 36.1052 414.412 37.5486C413.353 38.8956 412.823 41.109 412.823 44.188V109.573C412.823 112.749 413.353 115.01 414.412 116.357C415.569 117.704 417.827 118.715 421.2 119.388C422.449 119.677 423.366 120.062 423.942 120.543C424.518 120.928 424.808 121.505 424.808 122.275C424.808 122.852 424.472 123.333 423.799 123.718C423.122 124.103 422.352 124.296 421.486 124.296C418.214 124.296 414.989 124.151 411.813 123.863C407.961 123.67 405.122 123.574 403.293 123.574C401.56 123.574 398.578 123.67 394.343 123.863C389.915 124.055 386.448 124.151 383.945 124.151C381.924 124.151 380.913 123.478 380.913 122.131C380.913 121.361 381.154 120.784 381.635 120.398C382.213 120.014 383.127 119.677 384.379 119.388C387.938 118.618 390.445 117.512 391.887 116.068C393.33 114.625 394.053 112.46 394.053 109.573V82.149C394.053 80.6095 393.57 79.8397 392.61 79.8397H348.714C348.136 79.8397 347.703 80.0319 347.415 80.417C347.222 80.7058 347.126 81.235 347.126 82.0048V108.996C347.126 111.883 347.944 114.144 349.58 115.78C351.217 117.416 353.816 118.618 357.377 119.388C358.725 119.677 359.64 120.014 360.121 120.398C360.698 120.784 360.987 121.361 360.987 122.131C360.987 123.478 359.928 124.151 357.811 124.151C355.308 124.151 351.843 124.055 347.415 123.863C342.986 123.67 339.858 123.574 338.029 123.574C336.104 123.574 333.12 123.67 329.077 123.863C325.9 124.151 322.675 124.296 319.402 124.296Z" fill="#242320"/>
<path d="M482.954 125.739C474.484 125.739 466.544 123.766 459.13 119.821C451.816 115.78 445.945 110.151 441.517 102.934C437.185 95.7167 435.019 87.4894 435.019 78.2519C435.019 69.3991 436.945 61.1239 440.794 53.4259C444.646 45.7275 450.277 39.5695 457.687 34.9505C465.102 30.2355 473.955 27.8779 484.254 27.8779C492.728 27.8779 500.622 29.8987 507.935 33.9401C515.35 37.8853 521.221 43.4666 525.552 50.6832C529.981 57.9002 532.193 66.1275 532.193 75.365C532.193 84.2178 530.267 92.493 526.419 100.191C522.567 107.889 516.935 114.096 509.525 118.811C502.111 123.43 493.258 125.739 482.954 125.739ZM485.12 119.965C495.903 119.965 504.134 116.646 509.811 110.006C515.493 103.27 518.332 94.0809 518.332 82.4378C518.332 73.2962 516.935 65.0689 514.143 57.756C511.354 50.4427 507.212 44.6694 501.728 40.4355C496.336 36.1052 489.742 33.9401 481.945 33.9401C471.259 33.9401 463.079 37.2599 457.397 43.8996C451.72 50.4427 448.881 59.4881 448.881 71.0349C448.881 80.1765 450.227 88.4517 452.922 95.8613C455.715 103.27 459.807 109.14 465.194 113.47C470.683 117.8 477.323 119.965 485.12 119.965Z" fill="#242320"/>
<path d="M544.999 124.151C543.077 124.151 542.114 123.622 542.114 122.563C542.114 121.89 542.354 121.457 542.833 121.264C543.317 120.976 544.183 120.639 545.432 120.254C547.455 119.773 548.994 119.195 550.054 118.522C551.114 117.752 551.644 116.501 551.644 114.769V83.7365C551.644 80.6571 551.307 78.2995 550.63 76.6637C549.957 75.0279 548.515 73.9214 546.298 73.3442C545.339 73.0554 544.856 72.4299 544.856 71.4676C544.856 70.4094 545.289 69.8318 546.155 69.7355C549.141 68.9657 551.644 68.0034 553.662 66.849C555.782 65.6942 558.091 64.2026 560.593 62.3743C561.27 61.8933 561.8 61.6528 562.183 61.6528C562.666 61.6528 562.906 61.9896 562.906 62.6631L562.616 65.6942C562.519 66.4639 562.423 67.4262 562.326 68.5811C562.233 69.6392 562.183 70.7461 562.183 71.9006C562.183 72.8629 562.28 73.4405 562.473 73.6326C565.938 70.361 569.547 67.9555 573.302 66.416C577.054 64.7798 581.196 63.9621 585.717 63.9621C590.339 63.9621 594.191 65.8867 597.27 69.7355C600.445 73.5847 602.035 78.3478 602.035 84.025V114.769C602.035 116.501 602.518 117.704 603.478 118.378C604.537 118.955 606.127 119.58 608.242 120.254C609.399 120.639 610.219 121.024 610.698 121.409C611.275 121.697 611.565 122.178 611.565 122.852C611.565 123.718 610.602 124.151 608.676 124.151C606.077 124.151 604.007 124.007 602.468 123.718C600.542 123.525 598.763 123.429 597.127 123.429C595.588 123.429 593.758 123.525 591.639 123.718C590.099 124.007 587.98 124.151 585.284 124.151C583.362 124.151 582.399 123.718 582.399 122.852C582.399 122.178 582.639 121.697 583.118 121.409C583.698 121.024 584.565 120.639 585.717 120.254C587.837 119.58 589.376 118.955 590.339 118.378C591.399 117.704 591.929 116.501 591.929 114.769V84.458C591.929 80.3204 590.726 77.0488 588.316 74.6432C586.007 72.2373 582.879 70.9866 578.934 70.8903C572.966 70.8903 567.621 72.8149 562.906 76.6637C562.136 77.4335 561.75 78.5404 561.75 79.9836V114.769C561.75 116.501 562.28 117.752 563.339 118.522C564.399 119.195 565.938 119.773 567.957 120.254C569.114 120.543 569.934 120.879 570.413 121.264C570.989 121.553 571.279 121.986 571.279 122.563C571.279 123.622 570.316 124.151 568.39 124.151C565.888 124.151 563.819 124.007 562.183 123.718C560.067 123.525 558.238 123.429 556.695 123.429C555.155 123.429 553.326 123.525 551.21 123.718C549.671 124.007 547.598 124.151 544.999 124.151Z" fill="#242320"/>
<path d="M620.565 124.151C618.639 124.151 617.676 123.718 617.676 122.852C617.676 122.179 617.915 121.697 618.399 121.409C618.975 121.024 619.842 120.639 620.998 120.254C623.114 119.581 624.657 118.955 625.616 118.378C626.676 117.704 627.205 116.501 627.205 114.769V42.0228C627.205 35.9608 624.993 32.4485 620.565 31.4863C620.178 31.39 619.892 31.1976 619.698 30.9089C619.505 30.524 619.408 30.091 619.408 29.6099C619.408 28.6476 619.745 28.0703 620.418 27.8778C624.173 27.0118 628.459 25.5684 633.27 23.5477L636.735 22.2487C637.122 22.0562 637.408 21.96 637.602 21.96C637.795 21.96 637.938 22.1043 638.035 22.393C638.228 22.5854 638.325 22.7779 638.325 22.9704C638.325 23.5477 638.132 25.376 637.745 28.4552C637.459 31.5344 637.312 36.2494 637.312 42.6005V114.769C637.312 116.501 637.795 117.704 638.758 118.378C639.818 118.955 641.404 119.581 643.523 120.254C644.676 120.639 645.495 121.024 645.975 121.409C646.555 121.697 646.841 122.179 646.841 122.852C646.841 123.718 645.882 124.151 643.956 124.151C641.454 124.151 639.385 124.007 637.745 123.718C635.629 123.526 633.8 123.429 632.261 123.429C630.721 123.429 628.892 123.526 626.772 123.718C625.233 124.007 623.164 124.151 620.565 124.151Z" fill="#242320"/>
<path d="M655.972 124.151C654.046 124.151 653.083 123.622 653.083 122.563C653.083 121.89 653.327 121.409 653.807 121.12C654.383 120.831 655.249 120.543 656.406 120.254C658.622 119.677 660.207 119.051 661.17 118.378C662.134 117.608 662.613 116.405 662.613 114.769V83.4479C662.613 77.0969 660.447 73.5848 656.116 72.9113C655.156 72.8151 654.673 72.1895 654.673 71.0347C654.673 69.9765 655.106 69.3989 655.972 69.3026C661.843 67.9556 666.898 65.5501 671.133 62.086C672 61.4121 672.673 61.0754 673.156 61.0754C673.733 61.0754 674.023 61.3158 674.023 61.7972C674.023 62.8557 673.876 64.6841 673.589 67.2821C673.493 68.4366 673.299 70.6017 673.009 73.7774C672.82 76.8564 672.723 79.3582 672.723 81.2828V114.769C672.723 116.309 673.203 117.463 674.166 118.233C675.225 119.003 676.815 119.677 678.931 120.254C680.087 120.543 680.903 120.831 681.387 121.12C681.963 121.409 682.253 121.89 682.253 122.563C682.253 123.622 681.29 124.151 679.364 124.151C676.958 124.151 674.935 124.007 673.299 123.718C671.184 123.526 669.304 123.429 667.668 123.429C666.129 123.429 664.299 123.526 662.18 123.718C660.641 124.007 658.571 124.151 655.972 124.151ZM667.525 49.2398C665.502 49.2398 663.77 48.5663 662.327 47.2189C660.977 45.7757 660.304 44.0436 660.304 42.0227C660.304 39.906 660.977 38.1738 662.327 36.8267C663.77 35.3833 665.502 34.6616 667.525 34.6616C669.641 34.6616 671.373 35.3833 672.723 36.8267C674.166 38.1738 674.889 39.906 674.889 42.0227C674.889 44.0436 674.166 45.7757 672.723 47.2189C671.373 48.5663 669.641 49.2398 667.525 49.2398Z" fill="#242320"/>
<path d="M691.365 124.151C689.439 124.151 688.48 123.622 688.48 122.563C688.48 121.89 688.72 121.457 689.199 121.264C689.683 120.976 690.549 120.639 691.798 120.254C693.821 119.773 695.36 119.195 696.42 118.522C697.48 117.752 698.01 116.501 698.01 114.769V83.7365C698.01 80.6571 697.669 78.2995 696.996 76.6637C696.323 75.0279 694.881 73.9214 692.665 73.3442C691.702 73.0554 691.222 72.4299 691.222 71.4676C691.222 70.4094 691.655 69.8318 692.522 69.7355C695.504 68.9657 698.01 68.0034 700.029 66.849C702.148 65.6942 704.457 64.2026 706.959 62.3743C707.632 61.8933 708.162 61.6528 708.549 61.6528C709.029 61.6528 709.272 61.9896 709.272 62.6631L708.982 65.6942C708.886 66.4639 708.789 67.4262 708.692 68.5811C708.595 69.6392 708.549 70.7461 708.549 71.9006C708.549 72.8629 708.646 73.4405 708.839 73.6326C712.304 70.361 715.913 67.9555 719.668 66.416C723.42 64.7798 727.558 63.9621 732.084 63.9621C736.705 63.9621 740.554 65.8867 743.636 69.7355C746.811 73.5847 748.401 78.3478 748.401 84.025V114.769C748.401 116.501 748.881 117.704 749.844 118.378C750.903 118.955 752.493 119.58 754.609 120.254C755.765 120.639 756.581 121.024 757.065 121.409C757.641 121.697 757.931 122.178 757.931 122.852C757.931 123.718 756.968 124.151 755.042 124.151C752.443 124.151 750.374 124.007 748.834 123.718C746.908 123.525 745.129 123.429 743.493 123.429C741.95 123.429 740.12 123.525 738.005 123.718C736.466 124.007 734.346 124.151 731.65 124.151C729.724 124.151 728.765 123.718 728.765 122.852C728.765 122.178 729.005 121.697 729.485 121.409C730.065 121.024 730.931 120.639 732.084 120.254C734.203 119.58 735.742 118.955 736.705 118.378C737.765 117.704 738.295 116.501 738.295 114.769V84.458C738.295 80.3204 737.088 77.0488 734.683 74.6432C732.374 72.2373 729.245 70.9866 725.3 70.8903C719.328 70.8903 713.987 72.8149 709.272 76.6637C708.499 77.4335 708.116 78.5404 708.116 79.9836V114.769C708.116 116.501 708.646 117.752 709.705 118.522C710.761 119.195 712.304 119.773 714.323 120.254C715.48 120.543 716.296 120.879 716.779 121.264C717.356 121.553 717.646 121.986 717.646 122.563C717.646 123.622 716.683 124.151 714.757 124.151C712.254 124.151 710.185 124.007 708.549 123.718C706.43 123.525 704.6 123.429 703.061 123.429C701.522 123.429 699.692 123.525 697.577 123.718C696.033 124.007 693.964 124.151 691.365 124.151Z" fill="#242320"/>
<path d="M792.051 125.883C786.853 125.883 782.235 124.584 778.19 121.986C774.245 119.388 771.166 115.732 768.95 111.017C766.738 106.205 765.628 100.672 765.628 94.4176C765.628 89.0293 766.881 83.9773 769.383 79.2621C771.982 74.5473 775.401 70.8427 779.636 68.1483C783.871 65.3577 788.493 63.9624 793.498 63.9624C799.272 63.9624 803.991 65.6945 807.646 69.1586C811.401 72.5264 813.277 76.8565 813.277 82.149C813.277 85.1321 811.834 86.6233 808.945 86.6233H778.48C777.134 86.6233 776.171 87.0084 775.591 87.7782C775.111 88.4517 774.871 89.847 774.871 91.9641C774.871 96.4864 775.834 100.672 777.756 104.521C779.779 108.37 782.475 111.45 785.844 113.759C789.309 115.972 793.065 117.079 797.106 117.079C802.788 117.079 807.502 114.914 811.258 110.584C811.834 109.814 812.364 109.429 812.844 109.429C813.617 109.429 814 109.91 814 110.872C814 112.7 813.134 114.721 811.401 116.934C809.285 119.725 806.493 121.938 803.028 123.574C799.562 125.114 795.903 125.883 792.051 125.883ZM791.908 82.149C796.433 82.149 799.995 81.9085 802.594 81.4272C803.364 81.3309 803.747 80.2727 803.747 78.2519C803.747 75.4612 802.498 73.1036 799.995 71.1794C797.59 69.1586 794.701 68.1483 791.332 68.1483C789.212 68.1483 787 68.8218 784.687 70.1688C782.475 71.4199 780.646 73.0074 779.203 74.932C777.756 76.8565 777.037 78.7811 777.037 80.7057C777.037 81.668 777.613 82.149 778.77 82.149H791.908Z" fill="#242320"/>
<defs>
<linearGradient id="paint0_linear_401_2" x1="10.2714" y1="83.2628" x2="68.8468" y2="24.562" gradientUnits="userSpaceOnUse">
<stop stop-color="#F02F9F"/>
<stop offset="1" stop-color="#FFAD00"/>
</linearGradient>
<linearGradient id="paint1_linear_401_2" x1="66.2084" y1="99.0403" x2="66.2084" y2="-10.7105" gradientUnits="userSpaceOnUse">
<stop stop-color="#06FFFF"/>
<stop offset="0.0225704" stop-color="#07F6FD"/>
<stop offset="0.1481" stop-color="#0AC7F2"/>
<stop offset="0.278" stop-color="#0D9FE9"/>
<stop offset="0.4102" stop-color="#0F7EE2"/>
<stop offset="0.5457" stop-color="#1164DC"/>
<stop offset="0.6857" stop-color="#1252D8"/>
<stop offset="0.8331" stop-color="#1347D6"/>
<stop offset="1" stop-color="#1344D5"/>
</linearGradient>
<linearGradient id="paint2_linear_401_2" x1="-0.0263884" y1="112.394" x2="44.1219" y2="112.394" gradientUnits="userSpaceOnUse">
<stop stop-color="#06FFFF"/>
<stop offset="0.1076" stop-color="#07F5FD"/>
<stop offset="0.2899" stop-color="#09DAF7"/>
<stop offset="0.5246" stop-color="#0CAFED"/>
<stop offset="0.7995" stop-color="#1074E0"/>
<stop offset="1" stop-color="#1344D5"/>
</linearGradient>
<linearGradient id="paint3_linear_401_2" x1="44.1212" y1="112.394" x2="88.2957" y2="112.394" gradientUnits="userSpaceOnUse">
<stop stop-color="#F02F9F"/>
<stop offset="1" stop-color="#FFAD00"/>
</linearGradient>
</defs>
</svg>
